<?xml version="1.0" encoding="utf-8"?>
<!-- Generator: Adobe Illustrator 17.0.0, SVG Export Plug-In . SVG Version: 6.00 Build 0)  -->
<!DOCTYPE svg PUBLIC "-//W3C//DTD SVG 1.1//EN" "http://www.w3.org/Graphics/SVG/1.1/DTD/svg11.dtd">
<svg version="1.1" id="Capa_1" xmlns="http://www.w3.org/2000/svg" xmlns:xlink="http://www.w3.org/1999/xlink" x="0px" y="0px"
	 width="270px" height="40px" viewBox="0 0 270 40" enable-background="new 0 0 270 40" xml:space="preserve">
<text transform="matrix(1 0 0 1 15.8199 26.5086)" fill="#EE731B" font-family="'LucidaSans-Demi'" font-size="21.0045">Genom</text>
<text transform="matrix(1 0 0 1 150.2345 26.4706)" fill="#EE731B" font-family="'MyriadPro-Bold'" font-size="21.5682">Patterns</text>
<g>
	<path fill="#EE731B" d="M121.716,11.954v4.327v3.024v3.682c0,0.279-0.021,0.527-0.038,0.781c-0.088,1.325-0.393,2.336-0.916,3.024
		c-0.596,0.784-1.459,1.171-2.571,1.171c-1.068,0-1.906-0.399-2.494-1.171c-0.53-0.696-0.845-1.71-0.936-3.024
		c-0.018-0.255-0.039-0.504-0.039-0.781v-3.682v-3.024v-4.327h-4.351v4.327v3.024v3.341c0,0.388,0.012,0.762,0.035,1.122
		c0.072,1.146,0.263,2.148,0.555,3.024c1.064,3.19,3.536,4.64,7.088,4.64c3.662,0,6.236-1.514,7.358-4.64
		c0.316-0.881,0.522-1.883,0.598-3.024c0.023-0.343,0.035-0.698,0.035-1.065v-3.398v-3.024v-4.327H121.716z"/>
	<polygon fill="#EE731B" points="129.792,11.954 129.792,16.281 129.792,19.305 129.792,23.768 129.792,26.792 129.792,31.119 
		134.142,31.119 134.142,26.792 134.142,23.768 134.142,19.305 134.142,16.281 134.142,11.954 	"/>
</g>
<path fill="#55505A" d="M142.292,5.104v10.852h-2.867v-7.14c0-3.119-2.529-5.648-5.648-5.648h-24.003
	c-3.119,0-5.648,2.529-5.648,5.648v7.14h-3.353V5.104H6.331v31.427h71.482h2.946h20.013V26.467h3.353v6.352
	c0,3.119,2.529,5.648,5.648,5.648h24.003c3.119,0,5.648-2.529,5.648-5.648v-6.352h2.867v10.064h26.782h3.18h64.479V5.104H142.292z
	 M233.552,33.164h-61.299h-3.18h-23.836v-6.697v-3.024h-2.946h-2.867h-2.353v3.024v4.752c0,2.703-2.191,4.895-4.895,4.895h-20.803
	c-2.703,0-4.895-2.191-4.895-4.895v-4.752v-3.024h-2.353h-3.353h-3.18v3.024v6.697H80.759h-2.946H9.277V8.128h88.314v7.828v3.024
	h3.18h3.353h2.353v-3.024v-5.54c0-2.703,2.191-4.895,4.895-4.895h20.803c2.703,0,4.895,2.191,4.895,4.895v5.54v3.024h2.353h2.867
	h2.946v-3.024V8.128h88.314V33.164z"/>
</svg>
