<?xml version="1.0" encoding="utf-8"?>
<!-- Generator: Adobe Illustrator 17.0.0, SVG Export Plug-In . SVG Version: 6.00 Build 0)  -->
<!DOCTYPE svg PUBLIC "-//W3C//DTD SVG 1.1//EN" "http://www.w3.org/Graphics/SVG/1.1/DTD/svg11.dtd">
<svg version="1.1" id="Capa_1" xmlns="http://www.w3.org/2000/svg" xmlns:xlink="http://www.w3.org/1999/xlink" x="0px" y="0px"
	 width="171px" height="41px" viewBox="0 0 171 41" enable-background="new 0 0 171 41" xml:space="preserve">
<g>
	<path fill="#1D1D1B" d="M14.607,20.067c-0.497,0.194-1.156,0.388-1.977,0.58c-0.821,0.192-1.639,0.288-2.454,0.288
		c-1.89,0-3.369-0.515-4.439-1.544c-1.069-1.03-1.604-2.452-1.604-4.267c0-1.73,0.539-3.125,1.619-4.184
		c1.079-1.06,2.583-1.59,4.513-1.59c0.731,0,1.427,0.066,2.089,0.199c0.661,0.132,1.397,0.395,2.208,0.789v2.61h-0.321
		c-0.139-0.105-0.343-0.253-0.612-0.445c-0.269-0.192-0.527-0.355-0.776-0.49c-0.289-0.16-0.626-0.296-1.011-0.411
		c-0.386-0.115-0.794-0.172-1.227-0.172c-0.507,0-0.967,0.075-1.38,0.224c-0.413,0.15-0.783,0.379-1.112,0.688
		c-0.313,0.299-0.561,0.679-0.742,1.141c-0.182,0.461-0.272,0.993-0.272,1.596c0,1.231,0.326,2.174,0.977,2.827
		c0.651,0.653,1.614,0.98,2.887,0.98c0.109,0,0.23-0.003,0.362-0.007c0.132-0.005,0.252-0.012,0.362-0.022v-2.184H9.482V14.57h5.125
		V20.067z"/>
	<path fill="#1D1D1B" d="M25.275,17.001h-6.147c0.04,0.658,0.29,1.162,0.75,1.511c0.46,0.349,1.138,0.524,2.033,0.524
		c0.567,0,1.116-0.102,1.649-0.307c0.532-0.205,0.952-0.424,1.261-0.658h0.298v2.161c-0.607,0.244-1.179,0.422-1.716,0.531
		c-0.537,0.109-1.132,0.165-1.783,0.165c-1.681,0-2.969-0.379-3.864-1.137c-0.895-0.758-1.343-1.837-1.343-3.238
		c0-1.386,0.424-2.484,1.272-3.294c0.848-0.81,2.01-1.216,3.487-1.216c1.362,0,2.387,0.345,3.073,1.036
		c0.686,0.69,1.029,1.683,1.029,2.98V17.001z M22.604,15.423c-0.015-0.564-0.154-0.987-0.418-1.271
		c-0.264-0.284-0.674-0.426-1.231-0.426c-0.517,0-0.943,0.135-1.276,0.404c-0.333,0.269-0.52,0.7-0.559,1.294H22.604z"/>
	<path fill="#1D1D1B" d="M35.584,20.703h-2.693v-4.166c0-0.339-0.018-0.676-0.052-1.014c-0.035-0.336-0.095-0.584-0.179-0.744
		c-0.1-0.184-0.245-0.319-0.436-0.404c-0.192-0.085-0.459-0.127-0.802-0.127c-0.244,0-0.491,0.04-0.742,0.12
		c-0.251,0.08-0.524,0.207-0.817,0.381v5.953H27.17v-8.399h2.693v0.927c0.477-0.374,0.935-0.661,1.375-0.86
		c0.439-0.199,0.927-0.299,1.464-0.299c0.904,0,1.61,0.264,2.12,0.793c0.509,0.528,0.764,1.319,0.764,2.371V20.703z"/>
	<path fill="#1D1D1B" d="M46.618,16.507c0,1.381-0.402,2.469-1.205,3.264c-0.803,0.795-1.931,1.193-3.383,1.193
		c-1.452,0-2.58-0.398-3.383-1.193c-0.803-0.795-1.205-1.883-1.205-3.264c0-1.391,0.404-2.483,1.212-3.276
		c0.808-0.793,1.933-1.189,3.376-1.189c1.462,0,2.592,0.399,3.391,1.197C46.218,14.037,46.618,15.126,46.618,16.507z M43.313,18.549
		c0.174-0.214,0.305-0.473,0.392-0.774c0.087-0.302,0.131-0.719,0.131-1.253c0-0.494-0.045-0.908-0.134-1.241
		c-0.09-0.334-0.214-0.601-0.373-0.8c-0.159-0.205-0.351-0.349-0.574-0.434c-0.224-0.085-0.465-0.127-0.724-0.127
		c-0.259,0-0.489,0.035-0.69,0.105s-0.394,0.209-0.578,0.419c-0.164,0.194-0.295,0.461-0.392,0.8
		c-0.097,0.339-0.145,0.766-0.145,1.279c0,0.459,0.042,0.856,0.127,1.193c0.084,0.336,0.209,0.606,0.373,0.811
		c0.159,0.194,0.349,0.337,0.571,0.426c0.221,0.09,0.474,0.135,0.757,0.135c0.243,0,0.476-0.041,0.697-0.124
		C42.971,18.882,43.159,18.743,43.313,18.549z"/>
	<path fill="#1D1D1B" d="M56.726,14.75v5.953h-2.693v-4.196c0-0.409-0.01-0.757-0.03-1.044c-0.02-0.286-0.075-0.519-0.164-0.699
		c-0.09-0.179-0.225-0.31-0.407-0.393c-0.182-0.082-0.436-0.123-0.765-0.123c-0.264,0-0.52,0.054-0.768,0.161
		c-0.249,0.107-0.473,0.22-0.671,0.34v5.953h-2.693v-8.399h2.693v0.927c0.462-0.364,0.904-0.648,1.326-0.853
		c0.422-0.205,0.889-0.307,1.401-0.307c0.551,0,1.038,0.124,1.46,0.37c0.422,0.247,0.752,0.61,0.991,1.088
		c0.536-0.453,1.058-0.81,1.564-1.069c0.507-0.259,1.003-0.389,1.49-0.389c0.904,0,1.59,0.272,2.06,0.815
		c0.469,0.543,0.704,1.326,0.704,2.348v5.467h-2.693v-4.196c0-0.414-0.009-0.763-0.026-1.047c-0.018-0.284-0.071-0.516-0.16-0.696
		c-0.085-0.179-0.219-0.31-0.403-0.393c-0.184-0.082-0.443-0.123-0.776-0.123c-0.224,0-0.443,0.039-0.656,0.116
		C57.295,14.442,57.034,14.57,56.726,14.75z"/>
</g>
<g>
	<path fill="#1D1D1B" d="M105.682,13.082c0,0.499-0.087,0.986-0.261,1.462c-0.174,0.476-0.422,0.876-0.746,1.2
		c-0.443,0.439-0.936,0.77-1.481,0.995c-0.544,0.224-1.222,0.337-2.032,0.337h-1.783v3.627h-2.865V9.567h4.715
		c0.706,0,1.302,0.061,1.786,0.183c0.486,0.122,0.914,0.306,1.287,0.55c0.448,0.294,0.789,0.671,1.025,1.129
		C105.564,11.888,105.682,12.439,105.682,13.082z M102.72,13.146c0-0.313-0.085-0.583-0.254-0.809
		c-0.169-0.226-0.366-0.384-0.589-0.474c-0.298-0.12-0.589-0.186-0.873-0.198s-0.662-0.019-1.134-0.019h-0.492v3.328h0.821
		c0.487,0,0.889-0.03,1.205-0.089c0.316-0.06,0.581-0.179,0.794-0.358c0.184-0.159,0.317-0.349,0.399-0.571
		C102.68,13.735,102.72,13.465,102.72,13.146z"/>
	<path fill="#1D1D1B" d="M112.634,19.813c-0.144,0.109-0.323,0.242-0.537,0.396c-0.214,0.154-0.415,0.277-0.604,0.366
		c-0.264,0.12-0.537,0.208-0.821,0.266c-0.283,0.057-0.594,0.086-0.932,0.086c-0.795,0-1.462-0.247-1.999-0.74
		s-0.806-1.125-0.806-1.892c0-0.613,0.137-1.114,0.41-1.503s0.661-0.696,1.164-0.92c0.497-0.224,1.114-0.384,1.85-0.479
		c0.736-0.095,1.499-0.165,2.29-0.209v-0.045c0-0.464-0.189-0.784-0.567-0.961c-0.378-0.177-0.935-0.265-1.671-0.265
		c-0.443,0-0.915,0.079-1.417,0.236s-0.863,0.278-1.082,0.363h-0.246v-2.027c0.283-0.075,0.745-0.163,1.383-0.265
		c0.64-0.102,1.28-0.153,1.921-0.153c1.527,0,2.629,0.236,3.309,0.707c0.678,0.471,1.018,1.211,1.018,2.217v5.714h-2.663V19.813z
		 M112.634,18.506v-1.745c-0.363,0.03-0.756,0.071-1.179,0.123c-0.423,0.052-0.743,0.113-0.962,0.183
		c-0.269,0.085-0.474,0.208-0.615,0.369c-0.142,0.161-0.213,0.374-0.213,0.637c0,0.174,0.015,0.315,0.045,0.425
		c0.03,0.109,0.104,0.213,0.224,0.313c0.115,0.1,0.251,0.173,0.41,0.22c0.159,0.047,0.408,0.071,0.746,0.071
		c0.269,0,0.54-0.054,0.817-0.164C112.183,18.829,112.426,18.685,112.634,18.506z"/>
	<path fill="#1D1D1B" d="M123.123,20.629c-0.288,0.075-0.594,0.133-0.918,0.175c-0.323,0.042-0.719,0.063-1.186,0.063
		c-1.044,0-1.822-0.212-2.332-0.636c-0.509-0.424-0.764-1.149-0.764-2.176v-3.926h-1.104v-1.825h1.104V9.904h2.693v2.401h2.507
		v1.825h-2.507v2.981c0,0.295,0.003,0.552,0.007,0.772c0.005,0.22,0.045,0.417,0.119,0.592c0.07,0.175,0.193,0.313,0.368,0.415
		c0.176,0.103,0.433,0.154,0.77,0.154c0.139,0,0.321-0.03,0.547-0.09c0.226-0.06,0.383-0.115,0.473-0.165h0.223V20.629z"/>
	<path fill="#1D1D1B" d="M130.083,20.629c-0.288,0.075-0.594,0.133-0.918,0.175c-0.323,0.042-0.719,0.063-1.186,0.063
		c-1.044,0-1.822-0.212-2.332-0.636c-0.509-0.424-0.764-1.149-0.764-2.176v-3.926h-1.104v-1.825h1.104V9.904h2.693v2.401h2.507
		v1.825h-2.507v2.981c0,0.295,0.003,0.552,0.007,0.772c0.005,0.22,0.045,0.417,0.119,0.592c0.07,0.175,0.193,0.313,0.368,0.415
		c0.176,0.103,0.433,0.154,0.77,0.154c0.139,0,0.321-0.03,0.547-0.09c0.226-0.06,0.383-0.115,0.473-0.165h0.223V20.629z"/>
	<path fill="#1D1D1B" d="M139.938,17.001h-6.147c0.04,0.658,0.29,1.162,0.75,1.511c0.46,0.349,1.137,0.524,2.032,0.524
		c0.567,0,1.116-0.102,1.649-0.307s0.952-0.424,1.261-0.658h0.298v2.161c-0.607,0.244-1.179,0.422-1.716,0.531
		c-0.537,0.109-1.131,0.165-1.783,0.165c-1.681,0-2.969-0.379-3.864-1.137s-1.343-1.837-1.343-3.238
		c0-1.386,0.424-2.484,1.272-3.294c0.848-0.81,2.01-1.215,3.487-1.215c1.362,0,2.387,0.345,3.073,1.036
		c0.686,0.691,1.029,1.684,1.029,2.98V17.001z M137.267,15.423c-0.015-0.563-0.154-0.987-0.418-1.271s-0.674-0.426-1.231-0.426
		c-0.517,0-0.943,0.135-1.276,0.404c-0.333,0.269-0.519,0.701-0.559,1.294H137.267z"/>
	<path fill="#1D1D1B" d="M147.905,14.87h-0.238c-0.115-0.04-0.298-0.07-0.551-0.09c-0.254-0.02-0.465-0.03-0.633-0.03
		c-0.382,0-0.72,0.025-1.013,0.075c-0.293,0.05-0.608,0.135-0.945,0.254v5.624h-2.693v-8.399h2.693v1.234
		c0.591-0.509,1.104-0.846,1.541-1.013c0.437-0.167,0.838-0.251,1.206-0.251c0.094,0,0.201,0.003,0.32,0.007
		c0.119,0.005,0.223,0.013,0.313,0.022V14.87z"/>
	<path fill="#1D1D1B" d="M157.841,20.703h-2.693v-4.166c0-0.339-0.018-0.677-0.052-1.013c-0.035-0.337-0.094-0.584-0.179-0.744
		c-0.1-0.184-0.245-0.319-0.437-0.404c-0.191-0.085-0.458-0.127-0.802-0.127c-0.243,0-0.491,0.04-0.742,0.12
		c-0.252,0.08-0.524,0.207-0.817,0.381v5.953h-2.693v-8.399h2.693v0.927c0.477-0.374,0.935-0.661,1.375-0.86
		c0.439-0.199,0.928-0.299,1.463-0.299c0.904,0,1.611,0.264,2.12,0.793c0.509,0.529,0.764,1.319,0.764,2.371V20.703z"/>
	<path fill="#1D1D1B" d="M167.591,18.041c0,0.868-0.388,1.566-1.164,2.098c-0.776,0.53-1.838,0.796-3.185,0.796
		c-0.746,0-1.422-0.07-2.029-0.209c-0.607-0.139-1.094-0.294-1.462-0.464v-2.214h0.246c0.134,0.095,0.29,0.198,0.467,0.311
		c0.176,0.111,0.426,0.233,0.749,0.362c0.279,0.115,0.594,0.213,0.947,0.296c0.353,0.082,0.731,0.123,1.134,0.123
		c0.527,0,0.918-0.058,1.171-0.176c0.254-0.117,0.38-0.29,0.38-0.519c0-0.205-0.075-0.353-0.224-0.445
		c-0.149-0.092-0.433-0.181-0.85-0.266c-0.199-0.045-0.469-0.094-0.81-0.145c-0.34-0.053-0.65-0.116-0.928-0.191
		c-0.761-0.199-1.325-0.51-1.693-0.931c-0.368-0.421-0.552-0.946-0.552-1.574c0-0.808,0.382-1.479,1.145-2.016
		c0.764-0.536,1.807-0.804,3.13-0.804c0.627,0,1.227,0.064,1.802,0.191c0.574,0.127,1.023,0.263,1.346,0.408v2.124h-0.231
		c-0.398-0.274-0.852-0.497-1.362-0.669c-0.509-0.172-1.025-0.258-1.548-0.258c-0.433,0-0.797,0.06-1.093,0.179
		c-0.296,0.12-0.444,0.289-0.444,0.509c0,0.2,0.067,0.352,0.201,0.456c0.134,0.105,0.45,0.209,0.947,0.314
		c0.273,0.055,0.568,0.108,0.884,0.161c0.315,0.052,0.633,0.119,0.951,0.198c0.706,0.185,1.228,0.475,1.567,0.871
		S167.591,17.448,167.591,18.041z"/>
</g>
<path fill="#1D1D1B" d="M79.465,8.742v7.788c0,2.329,0.835,3.513,2.315,3.513c1.518,0,2.353-1.124,2.353-3.513V8.742h2.884v7.588
	c0,4.175-1.992,6.162-5.332,6.162c-3.225,0-5.123-1.887-5.123-6.203V8.742H79.465z"/>
<path fill="#1D1D1B" d="M73.766,8.742v13.75h-2.95V8.742H73.766z"/>
<path fill="#ED731A" d="M66.448,3.117v25h24.937v-25H66.448z M88.861,25.439H68.786V5.523h20.076V25.439z"/>
<rect x="4.225" y="25.439" fill="#1D1D1B" width="57.625" height="1.875"/>
<rect x="96.197" y="25.439" fill="#1D1D1B" width="71.484" height="1.875"/>
<g>
	<path fill="#1D1D1B" d="M8.352,32.056h0.663v2.723c0,0.474-0.057,0.85-0.171,1.129c-0.114,0.279-0.32,0.505-0.617,0.68
		C7.93,36.763,7.539,36.85,7.056,36.85c-0.47,0-0.854-0.076-1.152-0.228c-0.299-0.153-0.512-0.373-0.639-0.661
		s-0.191-0.682-0.191-1.182v-2.723h0.663v2.72c0,0.41,0.04,0.711,0.121,0.905s0.22,0.344,0.417,0.449s0.438,0.157,0.723,0.157
		c0.488,0,0.835-0.104,1.043-0.312c0.207-0.208,0.311-0.608,0.311-1.199V32.056z"/>
	<path fill="#1D1D1B" d="M9.795,35.75l0.609-0.09c0.034,0.229,0.129,0.405,0.285,0.527c0.156,0.123,0.374,0.184,0.655,0.184
		c0.283,0,0.492-0.054,0.629-0.162c0.137-0.109,0.205-0.236,0.205-0.381c0-0.131-0.06-0.233-0.181-0.308
		c-0.085-0.052-0.294-0.117-0.629-0.197c-0.451-0.107-0.764-0.2-0.938-0.278c-0.175-0.079-0.307-0.187-0.397-0.325
		c-0.09-0.139-0.135-0.291-0.135-0.458c0-0.152,0.037-0.293,0.111-0.423c0.074-0.129,0.175-0.237,0.302-0.323
		c0.096-0.067,0.226-0.123,0.392-0.169c0.165-0.046,0.342-0.069,0.532-0.069c0.285,0,0.535,0.038,0.75,0.115
		c0.215,0.078,0.374,0.182,0.477,0.314s0.173,0.308,0.212,0.529l-0.602,0.077c-0.027-0.176-0.107-0.313-0.237-0.411
		c-0.131-0.099-0.316-0.148-0.556-0.148c-0.283,0-0.484,0.044-0.605,0.132c-0.121,0.088-0.181,0.19-0.181,0.308
		c0,0.075,0.025,0.143,0.075,0.203c0.05,0.062,0.129,0.114,0.236,0.154c0.062,0.021,0.243,0.071,0.544,0.148
		c0.435,0.109,0.739,0.199,0.911,0.269s0.307,0.171,0.405,0.304s0.147,0.298,0.147,0.495c0,0.193-0.06,0.375-0.179,0.545
		c-0.12,0.171-0.292,0.302-0.518,0.396c-0.226,0.093-0.481,0.14-0.766,0.14c-0.471,0-0.831-0.092-1.078-0.276
		S9.863,36.113,9.795,35.75z"/>
	<path fill="#1D1D1B" d="M16.027,35.67l0.636,0.074c-0.1,0.35-0.286,0.621-0.557,0.814c-0.271,0.193-0.618,0.289-1.039,0.289
		c-0.531,0-0.952-0.154-1.263-0.461c-0.311-0.307-0.467-0.739-0.467-1.294c0-0.574,0.157-1.021,0.472-1.337
		c0.315-0.317,0.722-0.476,1.224-0.476c0.486,0,0.882,0.156,1.19,0.466c0.308,0.311,0.461,0.748,0.461,1.312
		c0,0.034-0.001,0.086-0.003,0.154h-2.708c0.023,0.375,0.135,0.662,0.338,0.862c0.203,0.199,0.456,0.299,0.759,0.299
		c0.226,0,0.418-0.056,0.578-0.167C15.807,36.092,15.933,35.914,16.027,35.67z M14.006,34.734h2.027
		c-0.027-0.287-0.105-0.502-0.233-0.646c-0.196-0.223-0.45-0.334-0.762-0.334c-0.283,0-0.52,0.089-0.713,0.267
		C14.133,34.198,14.027,34.436,14.006,34.734z"/>
	<path fill="#1D1D1B" d="M17.428,36.769v-3.415h0.554v0.518c0.141-0.242,0.272-0.402,0.391-0.479
		c0.12-0.077,0.251-0.115,0.395-0.115c0.208,0,0.418,0.062,0.632,0.186l-0.212,0.537c-0.15-0.084-0.301-0.125-0.451-0.125
		c-0.135,0-0.255,0.038-0.362,0.114c-0.107,0.076-0.183,0.181-0.229,0.317c-0.068,0.206-0.103,0.431-0.103,0.675v1.788H17.428z"/>
	<path fill="#1D1D1B" d="M21.903,36.769v-4.714h0.663v4.714H21.903z"/>
	<path fill="#1D1D1B" d="M23.657,36.769v-3.415h0.554v0.486c0.267-0.375,0.652-0.563,1.155-0.563c0.219,0,0.42,0.037,0.603,0.111
		c0.183,0.074,0.321,0.171,0.412,0.291c0.091,0.12,0.155,0.263,0.192,0.428c0.023,0.107,0.034,0.295,0.034,0.563v2.1h-0.616v-2.077
		c0-0.236-0.024-0.412-0.072-0.529c-0.048-0.117-0.133-0.21-0.255-0.28c-0.122-0.07-0.265-0.104-0.429-0.104
		c-0.262,0-0.489,0.078-0.679,0.234c-0.19,0.157-0.285,0.453-0.285,0.891v1.865H23.657z"/>
	<path fill="#1D1D1B" d="M28.894,36.252l0.089,0.511c-0.173,0.035-0.328,0.052-0.465,0.052c-0.223,0-0.396-0.034-0.519-0.1
		c-0.123-0.066-0.21-0.154-0.26-0.262c-0.05-0.108-0.075-0.336-0.075-0.683v-1.965h-0.451v-0.45h0.451v-0.845l0.612-0.347v1.193
		h0.619v0.45h-0.619v1.996c0,0.165,0.011,0.272,0.033,0.319c0.021,0.047,0.057,0.085,0.106,0.112
		c0.049,0.028,0.119,0.042,0.21,0.042C28.692,36.274,28.782,36.266,28.894,36.252z"/>
	<path fill="#1D1D1B" d="M31.981,35.67l0.636,0.074c-0.1,0.35-0.286,0.621-0.557,0.814c-0.271,0.193-0.618,0.289-1.039,0.289
		c-0.531,0-0.952-0.154-1.263-0.461c-0.311-0.307-0.467-0.739-0.467-1.294c0-0.574,0.157-1.021,0.472-1.337
		c0.315-0.317,0.722-0.476,1.224-0.476c0.486,0,0.882,0.156,1.19,0.466c0.308,0.311,0.461,0.748,0.461,1.312
		c0,0.034-0.001,0.086-0.003,0.154h-2.708c0.023,0.375,0.135,0.662,0.338,0.862c0.203,0.199,0.456,0.299,0.759,0.299
		c0.226,0,0.418-0.056,0.578-0.167C31.761,36.092,31.888,35.914,31.981,35.67z M29.961,34.734h2.027
		c-0.027-0.287-0.105-0.502-0.233-0.646c-0.196-0.223-0.45-0.334-0.762-0.334c-0.283,0-0.52,0.089-0.713,0.267
		C30.088,34.198,29.981,34.436,29.961,34.734z"/>
	<path fill="#1D1D1B" d="M33.383,36.769v-3.415h0.554v0.518c0.141-0.242,0.272-0.402,0.391-0.479
		c0.12-0.077,0.251-0.115,0.395-0.115c0.208,0,0.418,0.062,0.632,0.186l-0.212,0.537c-0.15-0.084-0.301-0.125-0.451-0.125
		c-0.135,0-0.255,0.038-0.362,0.114c-0.107,0.076-0.183,0.181-0.229,0.317c-0.068,0.206-0.103,0.431-0.103,0.675v1.788H33.383z"/>
	<path fill="#1D1D1B" d="M35.868,36.769v-2.964h-0.544v-0.45h0.544v-0.363c0-0.229,0.022-0.4,0.065-0.511
		c0.059-0.15,0.164-0.272,0.313-0.365c0.149-0.093,0.358-0.14,0.627-0.14c0.173,0,0.365,0.02,0.574,0.058l-0.092,0.505
		c-0.128-0.021-0.248-0.032-0.363-0.032c-0.187,0-0.319,0.038-0.396,0.113s-0.116,0.215-0.116,0.421v0.315h0.708v0.45H36.48v2.964
		H35.868z"/>
	<path fill="#1D1D1B" d="M40.035,36.348c-0.228,0.182-0.447,0.311-0.658,0.386s-0.437,0.112-0.679,0.112
		c-0.399,0-0.705-0.092-0.919-0.275s-0.321-0.417-0.321-0.703c0-0.167,0.04-0.32,0.121-0.458c0.081-0.138,0.187-0.249,0.318-0.333
		c0.131-0.084,0.279-0.147,0.443-0.19c0.121-0.03,0.303-0.059,0.547-0.087c0.497-0.056,0.863-0.122,1.097-0.2
		c0.002-0.079,0.003-0.129,0.003-0.151c0-0.236-0.058-0.402-0.174-0.499c-0.157-0.131-0.391-0.196-0.701-0.196
		c-0.29,0-0.503,0.048-0.641,0.143c-0.138,0.096-0.24,0.264-0.306,0.507l-0.602-0.077c0.055-0.242,0.145-0.438,0.27-0.587
		s0.306-0.264,0.544-0.344c0.237-0.08,0.512-0.12,0.824-0.12c0.31,0,0.562,0.034,0.756,0.103c0.193,0.069,0.336,0.155,0.427,0.259
		c0.091,0.104,0.155,0.236,0.191,0.394c0.02,0.098,0.031,0.276,0.031,0.533v0.772c0,0.538,0.013,0.878,0.039,1.021
		c0.026,0.143,0.078,0.28,0.155,0.41h-0.642C40.094,36.649,40.053,36.509,40.035,36.348z M39.984,35.055
		c-0.223,0.086-0.558,0.159-1.005,0.219c-0.253,0.035-0.432,0.073-0.537,0.116c-0.105,0.043-0.186,0.106-0.243,0.188
		c-0.057,0.082-0.085,0.175-0.085,0.275c0,0.154,0.062,0.283,0.186,0.386c0.124,0.103,0.306,0.154,0.545,0.154
		c0.237,0,0.448-0.049,0.632-0.146s0.32-0.231,0.407-0.4c0.066-0.131,0.099-0.323,0.099-0.579V35.055z"/>
	<path fill="#1D1D1B" d="M43.929,35.519l0.605,0.074c-0.066,0.392-0.235,0.699-0.508,0.921c-0.272,0.222-0.607,0.333-1.003,0.333
		c-0.497,0-0.896-0.153-1.198-0.458c-0.302-0.306-0.453-0.743-0.453-1.313c0-0.369,0.065-0.692,0.195-0.968
		c0.13-0.276,0.327-0.484,0.593-0.622c0.266-0.139,0.555-0.208,0.867-0.208c0.394,0,0.717,0.094,0.967,0.281
		c0.251,0.187,0.411,0.454,0.482,0.799l-0.598,0.087c-0.057-0.229-0.158-0.402-0.302-0.518s-0.32-0.173-0.525-0.173
		c-0.31,0-0.562,0.104-0.755,0.313c-0.194,0.209-0.291,0.54-0.291,0.992c0,0.459,0.093,0.792,0.28,1
		c0.187,0.208,0.431,0.312,0.732,0.312c0.242,0,0.443-0.07,0.605-0.209C43.783,36.022,43.885,35.808,43.929,35.519z"/>
	<path fill="#1D1D1B" d="M47.546,35.67l0.636,0.074c-0.1,0.35-0.286,0.621-0.557,0.814c-0.271,0.193-0.618,0.289-1.039,0.289
		c-0.531,0-0.952-0.154-1.263-0.461c-0.311-0.307-0.467-0.739-0.467-1.294c0-0.574,0.157-1.021,0.472-1.337
		c0.315-0.317,0.722-0.476,1.224-0.476c0.486,0,0.882,0.156,1.19,0.466c0.308,0.311,0.461,0.748,0.461,1.312
		c0,0.034-0.001,0.086-0.003,0.154h-2.708c0.023,0.375,0.135,0.662,0.338,0.862c0.203,0.199,0.456,0.299,0.759,0.299
		c0.226,0,0.418-0.056,0.578-0.167C47.326,36.092,47.452,35.914,47.546,35.67z M45.526,34.734h2.027
		c-0.027-0.287-0.105-0.502-0.233-0.646c-0.196-0.223-0.45-0.334-0.762-0.334c-0.283,0-0.52,0.089-0.713,0.267
		C45.652,34.198,45.546,34.436,45.526,34.734z"/>
	<path fill="#1D1D1B" d="M50.978,36.769v-4.714h1.726c0.39,0,0.687,0.023,0.892,0.068c0.287,0.062,0.532,0.175,0.735,0.338
		c0.264,0.21,0.462,0.479,0.593,0.805c0.131,0.327,0.197,0.701,0.197,1.121c0,0.358-0.045,0.676-0.133,0.952
		s-0.203,0.505-0.342,0.686c-0.139,0.181-0.291,0.324-0.457,0.428c-0.165,0.104-0.365,0.183-0.598,0.236
		c-0.234,0.054-0.502,0.081-0.805,0.081H50.978z M51.641,36.213h1.07c0.331,0,0.59-0.029,0.778-0.087
		c0.188-0.057,0.338-0.139,0.45-0.244c0.157-0.148,0.28-0.347,0.367-0.596c0.088-0.25,0.132-0.552,0.132-0.908
		c0-0.493-0.086-0.872-0.258-1.137c-0.172-0.264-0.381-0.442-0.627-0.532c-0.178-0.064-0.464-0.096-0.858-0.096h-1.053V36.213z"/>
	<path fill="#1D1D1B" d="M58.441,35.67l0.636,0.074c-0.1,0.35-0.286,0.621-0.557,0.814c-0.271,0.193-0.618,0.289-1.039,0.289
		c-0.531,0-0.952-0.154-1.263-0.461c-0.311-0.307-0.467-0.739-0.467-1.294c0-0.574,0.157-1.021,0.472-1.337
		c0.315-0.317,0.722-0.476,1.224-0.476c0.486,0,0.882,0.156,1.19,0.466c0.308,0.311,0.461,0.748,0.461,1.312
		c0,0.034-0.001,0.086-0.003,0.154h-2.708c0.023,0.375,0.135,0.662,0.338,0.862c0.203,0.199,0.456,0.299,0.759,0.299
		c0.226,0,0.418-0.056,0.578-0.167C58.221,36.092,58.347,35.914,58.441,35.67z M56.42,34.734h2.027
		c-0.027-0.287-0.105-0.502-0.233-0.646c-0.196-0.223-0.45-0.334-0.762-0.334c-0.283,0-0.52,0.089-0.713,0.267
		C56.547,34.198,56.441,34.436,56.42,34.734z"/>
	<path fill="#1D1D1B" d="M59.603,35.75l0.609-0.09c0.034,0.229,0.129,0.405,0.285,0.527c0.156,0.123,0.374,0.184,0.655,0.184
		c0.283,0,0.492-0.054,0.629-0.162c0.137-0.109,0.205-0.236,0.205-0.381c0-0.131-0.06-0.233-0.181-0.308
		c-0.085-0.052-0.294-0.117-0.629-0.197c-0.451-0.107-0.764-0.2-0.938-0.278c-0.175-0.079-0.307-0.187-0.397-0.325
		c-0.09-0.139-0.135-0.291-0.135-0.458c0-0.152,0.037-0.293,0.111-0.423c0.074-0.129,0.175-0.237,0.302-0.323
		c0.096-0.067,0.226-0.123,0.392-0.169c0.165-0.046,0.342-0.069,0.532-0.069c0.285,0,0.535,0.038,0.75,0.115
		c0.215,0.078,0.374,0.182,0.477,0.314s0.173,0.308,0.212,0.529l-0.602,0.077c-0.027-0.176-0.107-0.313-0.237-0.411
		c-0.131-0.099-0.316-0.148-0.556-0.148c-0.283,0-0.484,0.044-0.605,0.132c-0.121,0.088-0.181,0.19-0.181,0.308
		c0,0.075,0.025,0.143,0.075,0.203c0.05,0.062,0.129,0.114,0.236,0.154c0.062,0.021,0.243,0.071,0.544,0.148
		c0.435,0.109,0.739,0.199,0.911,0.269s0.307,0.171,0.405,0.304s0.147,0.298,0.147,0.495c0,0.193-0.06,0.375-0.179,0.545
		c-0.12,0.171-0.292,0.302-0.518,0.396c-0.226,0.093-0.481,0.14-0.766,0.14c-0.471,0-0.831-0.092-1.078-0.276
		S59.671,36.113,59.603,35.75z"/>
	<path fill="#1D1D1B" d="M63.353,32.721v-0.665h0.616v0.665H63.353z M63.353,36.769v-3.415h0.616v3.415H63.353z"/>
	<path fill="#1D1D1B" d="M64.792,37.053l0.598,0.084c0.025,0.173,0.095,0.3,0.208,0.379c0.153,0.107,0.361,0.161,0.626,0.161
		c0.285,0,0.505-0.054,0.66-0.161c0.155-0.107,0.26-0.257,0.315-0.45c0.032-0.118,0.047-0.366,0.044-0.743
		c-0.269,0.298-0.604,0.447-1.005,0.447c-0.499,0-0.885-0.169-1.159-0.508c-0.274-0.339-0.41-0.745-0.41-1.219
		c0-0.326,0.063-0.626,0.188-0.902c0.125-0.275,0.307-0.488,0.545-0.638c0.238-0.15,0.518-0.225,0.839-0.225
		c0.428,0,0.782,0.163,1.06,0.489v-0.412h0.567v2.952c0,0.532-0.057,0.909-0.172,1.13c-0.115,0.222-0.298,0.397-0.547,0.526
		c-0.249,0.129-0.557,0.193-0.921,0.193c-0.433,0-0.783-0.092-1.049-0.275C64.912,37.697,64.783,37.421,64.792,37.053z
		 M65.302,35.001c0,0.448,0.095,0.775,0.284,0.98c0.189,0.206,0.426,0.309,0.711,0.309c0.283,0,0.52-0.103,0.711-0.307
		c0.192-0.204,0.287-0.526,0.287-0.963c0-0.418-0.099-0.733-0.296-0.945c-0.197-0.212-0.435-0.318-0.713-0.318
		c-0.273,0-0.506,0.104-0.697,0.313C65.397,34.279,65.302,34.589,65.302,35.001z"/>
	<path fill="#1D1D1B" d="M68.799,36.769v-3.415h0.554v0.486c0.267-0.375,0.652-0.563,1.155-0.563c0.219,0,0.42,0.037,0.603,0.111
		c0.183,0.074,0.321,0.171,0.412,0.291c0.091,0.12,0.155,0.263,0.192,0.428c0.023,0.107,0.034,0.295,0.034,0.563v2.1h-0.616v-2.077
		c0-0.236-0.024-0.412-0.072-0.529c-0.048-0.117-0.133-0.21-0.255-0.28c-0.122-0.07-0.265-0.104-0.429-0.104
		c-0.262,0-0.489,0.078-0.679,0.234c-0.19,0.157-0.285,0.453-0.285,0.891v1.865H68.799z"/>
	<path fill="#1D1D1B" d="M74.716,36.769v-4.714h1.891c0.333,0,0.587,0.015,0.762,0.045c0.246,0.038,0.452,0.112,0.619,0.22
		c0.166,0.108,0.3,0.259,0.402,0.455c0.102,0.195,0.152,0.41,0.152,0.643c0,0.4-0.135,0.74-0.407,1.017s-0.761,0.416-1.47,0.416
		H75.38v1.917H74.716z M75.38,34.297h1.296c0.428,0,0.733-0.075,0.913-0.225c0.18-0.15,0.27-0.361,0.27-0.634
		c0-0.197-0.053-0.366-0.159-0.506c-0.106-0.14-0.246-0.233-0.419-0.278c-0.112-0.028-0.318-0.042-0.619-0.042H75.38V34.297z"/>
	<path fill="#1D1D1B" d="M81.677,36.348c-0.228,0.182-0.447,0.311-0.658,0.386s-0.437,0.112-0.679,0.112
		c-0.399,0-0.705-0.092-0.919-0.275s-0.321-0.417-0.321-0.703c0-0.167,0.04-0.32,0.121-0.458c0.081-0.138,0.187-0.249,0.318-0.333
		c0.131-0.084,0.279-0.147,0.443-0.19c0.121-0.03,0.303-0.059,0.547-0.087c0.497-0.056,0.863-0.122,1.097-0.2
		c0.002-0.079,0.003-0.129,0.003-0.151c0-0.236-0.058-0.402-0.174-0.499c-0.157-0.131-0.391-0.196-0.701-0.196
		c-0.29,0-0.503,0.048-0.641,0.143c-0.138,0.096-0.24,0.264-0.306,0.507l-0.602-0.077c0.055-0.242,0.145-0.438,0.27-0.587
		s0.306-0.264,0.544-0.344c0.237-0.08,0.512-0.12,0.824-0.12c0.31,0,0.562,0.034,0.756,0.103c0.193,0.069,0.336,0.155,0.427,0.259
		c0.091,0.104,0.155,0.236,0.191,0.394c0.02,0.098,0.031,0.276,0.031,0.533v0.772c0,0.538,0.013,0.878,0.039,1.021
		c0.026,0.143,0.078,0.28,0.155,0.41H81.8C81.736,36.649,81.695,36.509,81.677,36.348z M81.625,35.055
		c-0.223,0.086-0.558,0.159-1.005,0.219c-0.253,0.035-0.432,0.073-0.537,0.116c-0.105,0.043-0.186,0.106-0.243,0.188
		c-0.057,0.082-0.085,0.175-0.085,0.275c0,0.154,0.062,0.283,0.186,0.386c0.124,0.103,0.306,0.154,0.545,0.154
		c0.237,0,0.448-0.049,0.632-0.146s0.32-0.231,0.407-0.4c0.066-0.131,0.099-0.323,0.099-0.579V35.055z"/>
	<path fill="#1D1D1B" d="M84.545,36.252l0.089,0.511c-0.173,0.035-0.328,0.052-0.465,0.052c-0.223,0-0.396-0.034-0.519-0.1
		c-0.123-0.066-0.21-0.154-0.26-0.262c-0.05-0.108-0.075-0.336-0.075-0.683v-1.965h-0.451v-0.45h0.451v-0.845l0.612-0.347v1.193
		h0.619v0.45h-0.619v1.996c0,0.165,0.011,0.272,0.033,0.319c0.021,0.047,0.057,0.085,0.106,0.112
		c0.049,0.028,0.119,0.042,0.21,0.042C84.343,36.274,84.433,36.266,84.545,36.252z"/>
	<path fill="#1D1D1B" d="M86.49,36.252l0.089,0.511c-0.173,0.035-0.328,0.052-0.465,0.052c-0.223,0-0.396-0.034-0.519-0.1
		c-0.123-0.066-0.21-0.154-0.26-0.262c-0.05-0.108-0.075-0.336-0.075-0.683v-1.965h-0.451v-0.45h0.451v-0.845l0.612-0.347v1.193
		h0.618v0.45h-0.618v1.996c0,0.165,0.01,0.272,0.032,0.319c0.021,0.047,0.057,0.085,0.106,0.112
		c0.049,0.028,0.119,0.042,0.211,0.042C86.288,36.274,86.378,36.266,86.49,36.252z"/>
	<path fill="#1D1D1B" d="M89.577,35.67l0.636,0.074c-0.101,0.35-0.286,0.621-0.557,0.814c-0.272,0.193-0.618,0.289-1.039,0.289
		c-0.531,0-0.952-0.154-1.263-0.461c-0.311-0.307-0.467-0.739-0.467-1.294c0-0.574,0.157-1.021,0.472-1.337
		c0.314-0.317,0.723-0.476,1.224-0.476c0.486,0,0.882,0.156,1.19,0.466s0.461,0.748,0.461,1.312c0,0.034-0.001,0.086-0.003,0.154
		h-2.708c0.023,0.375,0.135,0.662,0.338,0.862c0.203,0.199,0.456,0.299,0.759,0.299c0.225,0,0.418-0.056,0.577-0.167
		C89.357,36.092,89.484,35.914,89.577,35.67z M87.557,34.734h2.027c-0.027-0.287-0.105-0.502-0.233-0.646
		c-0.196-0.223-0.45-0.334-0.762-0.334c-0.283,0-0.52,0.089-0.712,0.267C87.684,34.198,87.577,34.436,87.557,34.734z"/>
	<path fill="#1D1D1B" d="M90.978,36.769v-3.415h0.554v0.518c0.142-0.242,0.272-0.402,0.392-0.479
		c0.12-0.077,0.251-0.115,0.395-0.115c0.207,0,0.418,0.062,0.632,0.186l-0.212,0.537c-0.15-0.084-0.3-0.125-0.451-0.125
		c-0.134,0-0.255,0.038-0.363,0.114c-0.107,0.076-0.183,0.181-0.229,0.317c-0.068,0.206-0.103,0.431-0.103,0.675v1.788H90.978z"/>
	<path fill="#1D1D1B" d="M93.317,36.769v-3.415h0.554v0.486c0.267-0.375,0.652-0.563,1.156-0.563c0.219,0,0.42,0.037,0.603,0.111
		c0.184,0.074,0.321,0.171,0.412,0.291c0.091,0.12,0.155,0.263,0.192,0.428c0.023,0.107,0.034,0.295,0.034,0.563v2.1h-0.615v-2.077
		c0-0.236-0.024-0.412-0.072-0.529c-0.048-0.117-0.133-0.21-0.255-0.28c-0.122-0.07-0.265-0.104-0.429-0.104
		c-0.262,0-0.488,0.078-0.679,0.234c-0.19,0.157-0.286,0.453-0.286,0.891v1.865H93.317z"/>
	<path fill="#1D1D1B" d="M96.965,35.75l0.609-0.09c0.034,0.229,0.129,0.405,0.286,0.527c0.156,0.123,0.374,0.184,0.654,0.184
		c0.283,0,0.493-0.054,0.629-0.162c0.137-0.109,0.205-0.236,0.205-0.381c0-0.131-0.06-0.233-0.181-0.308
		c-0.084-0.052-0.294-0.117-0.629-0.197c-0.451-0.107-0.764-0.2-0.938-0.278c-0.175-0.079-0.306-0.187-0.397-0.325
		c-0.09-0.139-0.135-0.291-0.135-0.458c0-0.152,0.037-0.293,0.111-0.423c0.074-0.129,0.175-0.237,0.303-0.323
		c0.095-0.067,0.226-0.123,0.391-0.169c0.165-0.046,0.342-0.069,0.532-0.069c0.285,0,0.535,0.038,0.75,0.115
		c0.215,0.078,0.375,0.182,0.477,0.314s0.173,0.308,0.212,0.529l-0.602,0.077c-0.027-0.176-0.106-0.313-0.237-0.411
		c-0.131-0.099-0.316-0.148-0.555-0.148c-0.283,0-0.485,0.044-0.605,0.132s-0.181,0.19-0.181,0.308c0,0.075,0.026,0.143,0.076,0.203
		c0.05,0.062,0.129,0.114,0.236,0.154c0.062,0.021,0.243,0.071,0.544,0.148c0.435,0.109,0.739,0.199,0.911,0.269
		s0.308,0.171,0.405,0.304c0.098,0.133,0.147,0.298,0.147,0.495c0,0.193-0.06,0.375-0.179,0.545
		c-0.12,0.171-0.292,0.302-0.518,0.396c-0.225,0.093-0.481,0.14-0.765,0.14c-0.472,0-0.831-0.092-1.078-0.276
		C97.191,36.385,97.033,36.113,96.965,35.75z"/>
	<path fill="#1D1D1B" d="M102.708,36.769v-4.714h0.663v4.158h2.468v0.556H102.708z"/>
	<path fill="#1D1D1B" d="M106.554,32.721v-0.665h0.615v0.665H106.554z M106.554,36.769v-3.415h0.615v3.415H106.554z"/>
	<path fill="#1D1D1B" d="M108.673,36.769h-0.571v-4.714h0.615v1.682c0.259-0.306,0.591-0.46,0.995-0.46
		c0.223,0,0.435,0.042,0.634,0.127c0.199,0.085,0.363,0.204,0.492,0.357s0.229,0.338,0.303,0.554
		c0.073,0.217,0.109,0.449,0.109,0.695c0,0.585-0.154,1.038-0.461,1.357c-0.308,0.32-0.677,0.479-1.108,0.479
		c-0.428,0-0.765-0.168-1.008-0.505V36.769z M108.666,35.036c0,0.41,0.059,0.706,0.178,0.887c0.193,0.298,0.456,0.447,0.786,0.447
		c0.269,0,0.502-0.11,0.698-0.33s0.294-0.547,0.294-0.983c0-0.446-0.094-0.775-0.282-0.987s-0.415-0.318-0.682-0.318
		c-0.269,0-0.502,0.11-0.698,0.329C108.764,34.303,108.666,34.62,108.666,35.036z"/>
	<path fill="#1D1D1B" d="M111.993,36.769v-3.415h0.554v0.518c0.142-0.242,0.272-0.402,0.392-0.479
		c0.12-0.077,0.251-0.115,0.395-0.115c0.207,0,0.418,0.062,0.632,0.186l-0.212,0.537c-0.15-0.084-0.3-0.125-0.451-0.125
		c-0.134,0-0.255,0.038-0.363,0.114c-0.107,0.076-0.183,0.181-0.229,0.317c-0.068,0.206-0.103,0.431-0.103,0.675v1.788H111.993z"/>
	<path fill="#1D1D1B" d="M116.7,36.348c-0.228,0.182-0.447,0.311-0.659,0.386c-0.211,0.075-0.437,0.112-0.678,0.112
		c-0.399,0-0.706-0.092-0.92-0.275s-0.322-0.417-0.322-0.703c0-0.167,0.041-0.32,0.121-0.458c0.081-0.138,0.187-0.249,0.318-0.333
		s0.279-0.147,0.443-0.19c0.12-0.03,0.303-0.059,0.547-0.087c0.497-0.056,0.862-0.122,1.097-0.2
		c0.002-0.079,0.003-0.129,0.003-0.151c0-0.236-0.058-0.402-0.174-0.499c-0.157-0.131-0.391-0.196-0.701-0.196
		c-0.289,0-0.503,0.048-0.641,0.143c-0.138,0.096-0.24,0.264-0.306,0.507l-0.602-0.077c0.055-0.242,0.145-0.438,0.27-0.587
		c0.125-0.149,0.306-0.264,0.543-0.344c0.237-0.08,0.511-0.12,0.824-0.12c0.31,0,0.562,0.034,0.756,0.103
		c0.193,0.069,0.336,0.155,0.427,0.259c0.091,0.104,0.155,0.236,0.192,0.394c0.02,0.098,0.031,0.276,0.031,0.533v0.772
		c0,0.538,0.013,0.878,0.039,1.021c0.026,0.143,0.078,0.28,0.156,0.41h-0.643C116.759,36.649,116.718,36.509,116.7,36.348z
		 M116.649,35.055c-0.223,0.086-0.558,0.159-1.005,0.219c-0.253,0.035-0.432,0.073-0.536,0.116
		c-0.105,0.043-0.186,0.106-0.243,0.188s-0.085,0.175-0.085,0.275c0,0.154,0.062,0.283,0.186,0.386
		c0.125,0.103,0.306,0.154,0.545,0.154c0.237,0,0.448-0.049,0.633-0.146c0.184-0.098,0.32-0.231,0.406-0.4
		c0.066-0.131,0.099-0.323,0.099-0.579V35.055z"/>
	<path fill="#1D1D1B" d="M118.218,36.769v-3.415h0.554v0.518c0.142-0.242,0.272-0.402,0.392-0.479
		c0.12-0.077,0.251-0.115,0.395-0.115c0.207,0,0.418,0.062,0.632,0.186l-0.212,0.537c-0.15-0.084-0.3-0.125-0.451-0.125
		c-0.134,0-0.255,0.038-0.363,0.114c-0.107,0.076-0.183,0.181-0.229,0.317c-0.068,0.206-0.103,0.431-0.103,0.675v1.788H118.218z"/>
	<path fill="#1D1D1B" d="M120.529,38.085l-0.068-0.544c0.135,0.034,0.252,0.052,0.352,0.052c0.137,0,0.246-0.022,0.328-0.065
		c0.082-0.043,0.149-0.103,0.201-0.18c0.039-0.058,0.101-0.201,0.188-0.431c0.012-0.032,0.03-0.079,0.055-0.141l-1.378-3.422h0.663
		l0.756,1.978c0.098,0.251,0.186,0.515,0.264,0.791c0.07-0.266,0.154-0.525,0.253-0.778l0.776-1.99h0.616l-1.381,3.473
		c-0.148,0.375-0.263,0.634-0.345,0.775c-0.109,0.191-0.235,0.331-0.376,0.42c-0.142,0.089-0.31,0.134-0.506,0.134
		C120.807,38.155,120.674,38.132,120.529,38.085z"/>
	<path fill="#1D1D1B" d="M126.149,36.769v-2.964h-0.544v-0.45h0.544v-0.363c0-0.229,0.021-0.4,0.065-0.511
		c0.059-0.15,0.164-0.272,0.313-0.365c0.149-0.093,0.358-0.14,0.627-0.14c0.173,0,0.364,0.02,0.574,0.058l-0.093,0.505
		c-0.128-0.021-0.248-0.032-0.362-0.032c-0.187,0-0.319,0.038-0.397,0.113s-0.116,0.215-0.116,0.421v0.315h0.707v0.45h-0.707v2.964
		H126.149z"/>
	<path fill="#1D1D1B" d="M127.718,35.062c0-0.632,0.187-1.101,0.56-1.406c0.313-0.253,0.693-0.379,1.142-0.379
		c0.499,0,0.907,0.154,1.224,0.461s0.475,0.732,0.475,1.275c0,0.439-0.07,0.785-0.211,1.037c-0.14,0.251-0.344,0.447-0.612,0.587
		s-0.56,0.209-0.877,0.209c-0.508,0-0.919-0.153-1.232-0.46S127.718,35.638,127.718,35.062z M128.35,35.062
		c0,0.437,0.101,0.765,0.305,0.982c0.203,0.218,0.458,0.327,0.765,0.327c0.305,0,0.56-0.109,0.762-0.328
		c0.203-0.219,0.305-0.552,0.305-1c0-0.422-0.102-0.742-0.306-0.96c-0.204-0.217-0.457-0.326-0.76-0.326
		c-0.308,0-0.563,0.108-0.765,0.325C128.452,34.298,128.35,34.625,128.35,35.062z"/>
	<path fill="#1D1D1B" d="M131.834,36.769v-3.415h0.554v0.518c0.142-0.242,0.272-0.402,0.392-0.479
		c0.12-0.077,0.251-0.115,0.395-0.115c0.207,0,0.418,0.062,0.632,0.186l-0.212,0.537c-0.15-0.084-0.3-0.125-0.451-0.125
		c-0.134,0-0.255,0.038-0.363,0.114c-0.107,0.076-0.183,0.181-0.229,0.317c-0.068,0.206-0.103,0.431-0.103,0.675v1.788H131.834z"/>
	<path fill="#1D1D1B" d="M138.541,34.921v-0.553l2.123-0.004v1.749c-0.326,0.245-0.662,0.428-1.008,0.552
		c-0.346,0.123-0.702,0.185-1.066,0.185c-0.493,0-0.94-0.099-1.342-0.298c-0.402-0.198-0.706-0.485-0.911-0.86
		c-0.205-0.375-0.308-0.794-0.308-1.257c0-0.458,0.102-0.887,0.306-1.284c0.204-0.398,0.497-0.693,0.88-0.886
		s0.824-0.289,1.323-0.289c0.362,0,0.69,0.056,0.983,0.166c0.293,0.11,0.522,0.264,0.689,0.461c0.166,0.197,0.292,0.454,0.379,0.771
		l-0.598,0.154c-0.075-0.24-0.168-0.429-0.28-0.566c-0.112-0.137-0.272-0.247-0.479-0.33c-0.208-0.083-0.438-0.124-0.691-0.124
		c-0.303,0-0.565,0.043-0.786,0.13s-0.399,0.201-0.535,0.342c-0.135,0.142-0.24,0.297-0.316,0.466
		c-0.128,0.292-0.191,0.608-0.191,0.948c0,0.421,0.077,0.771,0.231,1.055s0.378,0.493,0.671,0.63
		c0.294,0.137,0.607,0.206,0.937,0.206c0.287,0,0.568-0.052,0.841-0.156c0.273-0.104,0.481-0.215,0.622-0.333v-0.878H138.541z"/>
	<path fill="#1D1D1B" d="M144.048,35.67l0.636,0.074c-0.101,0.35-0.286,0.621-0.557,0.814c-0.272,0.193-0.618,0.289-1.039,0.289
		c-0.531,0-0.952-0.154-1.263-0.461c-0.311-0.307-0.467-0.739-0.467-1.294c0-0.574,0.157-1.021,0.472-1.337
		c0.314-0.317,0.723-0.476,1.224-0.476c0.486,0,0.882,0.156,1.19,0.466s0.461,0.748,0.461,1.312c0,0.034-0.001,0.086-0.003,0.154
		h-2.708c0.023,0.375,0.135,0.662,0.338,0.862c0.203,0.199,0.456,0.299,0.759,0.299c0.225,0,0.418-0.056,0.577-0.167
		C143.829,36.092,143.955,35.914,144.048,35.67z M142.028,34.734h2.027c-0.027-0.287-0.105-0.502-0.233-0.646
		c-0.196-0.223-0.45-0.334-0.762-0.334c-0.283,0-0.52,0.089-0.712,0.267C142.155,34.198,142.048,34.436,142.028,34.734z"/>
	<path fill="#1D1D1B" d="M145.457,36.769v-3.415h0.554v0.486c0.267-0.375,0.652-0.563,1.156-0.563c0.219,0,0.42,0.037,0.603,0.111
		c0.184,0.074,0.321,0.171,0.412,0.291c0.091,0.12,0.155,0.263,0.192,0.428c0.023,0.107,0.034,0.295,0.034,0.563v2.1h-0.615v-2.077
		c0-0.236-0.024-0.412-0.072-0.529c-0.048-0.117-0.133-0.21-0.255-0.28c-0.122-0.07-0.265-0.104-0.429-0.104
		c-0.262,0-0.488,0.078-0.679,0.234c-0.19,0.157-0.286,0.453-0.286,0.891v1.865H145.457z"/>
	<path fill="#1D1D1B" d="M149.122,35.062c0-0.632,0.187-1.101,0.56-1.406c0.313-0.253,0.693-0.379,1.142-0.379
		c0.499,0,0.907,0.154,1.224,0.461s0.475,0.732,0.475,1.275c0,0.439-0.07,0.785-0.211,1.037c-0.14,0.251-0.344,0.447-0.612,0.587
		s-0.56,0.209-0.877,0.209c-0.508,0-0.919-0.153-1.232-0.46S149.122,35.638,149.122,35.062z M149.754,35.062
		c0,0.437,0.101,0.765,0.305,0.982c0.203,0.218,0.458,0.327,0.765,0.327c0.305,0,0.56-0.109,0.762-0.328
		c0.203-0.219,0.305-0.552,0.305-1c0-0.422-0.102-0.742-0.306-0.96c-0.204-0.217-0.457-0.326-0.76-0.326
		c-0.308,0-0.563,0.108-0.765,0.325C149.855,34.298,149.754,34.625,149.754,35.062z"/>
	<path fill="#1D1D1B" d="M153.244,36.769v-3.415h0.551v0.479c0.114-0.167,0.266-0.302,0.455-0.403s0.405-0.153,0.646-0.153
		c0.269,0,0.49,0.052,0.662,0.157s0.294,0.252,0.364,0.441c0.287-0.399,0.661-0.598,1.121-0.598c0.36,0,0.637,0.094,0.831,0.281
		c0.193,0.187,0.291,0.476,0.291,0.867v2.344h-0.612v-2.151c0-0.232-0.02-0.399-0.06-0.5c-0.04-0.101-0.112-0.184-0.217-0.246
		c-0.105-0.062-0.228-0.093-0.369-0.093c-0.255,0-0.468,0.08-0.636,0.239c-0.168,0.16-0.253,0.416-0.253,0.767v1.984h-0.616v-2.219
		c0-0.257-0.05-0.45-0.15-0.579c-0.1-0.129-0.264-0.193-0.493-0.193c-0.173,0-0.333,0.043-0.48,0.128
		c-0.146,0.086-0.253,0.211-0.319,0.377c-0.067,0.165-0.099,0.403-0.099,0.714v1.772H153.244z"/>
	<path fill="#1D1D1B" d="M159.08,32.721v-0.665h0.615v0.665H159.08z M159.08,36.769v-3.415h0.615v3.415H159.08z"/>
	<path fill="#1D1D1B" d="M163.001,35.519l0.605,0.074c-0.066,0.392-0.236,0.699-0.508,0.921c-0.272,0.222-0.607,0.333-1.003,0.333
		c-0.497,0-0.896-0.153-1.198-0.458c-0.302-0.306-0.453-0.743-0.453-1.313c0-0.369,0.065-0.692,0.195-0.968s0.328-0.484,0.593-0.622
		c0.266-0.139,0.554-0.208,0.867-0.208c0.394,0,0.717,0.094,0.967,0.281s0.411,0.454,0.482,0.799l-0.598,0.087
		c-0.057-0.229-0.158-0.402-0.303-0.518s-0.32-0.173-0.525-0.173c-0.31,0-0.562,0.104-0.756,0.313
		c-0.193,0.209-0.291,0.54-0.291,0.992c0,0.459,0.093,0.792,0.281,1c0.187,0.208,0.43,0.312,0.731,0.312
		c0.242,0,0.443-0.07,0.605-0.209C162.855,36.022,162.958,35.808,163.001,35.519z"/>
	<path fill="#1D1D1B" d="M163.887,35.75l0.609-0.09c0.034,0.229,0.129,0.405,0.286,0.527c0.156,0.123,0.374,0.184,0.654,0.184
		c0.283,0,0.493-0.054,0.629-0.162c0.137-0.109,0.205-0.236,0.205-0.381c0-0.131-0.06-0.233-0.181-0.308
		c-0.084-0.052-0.294-0.117-0.629-0.197c-0.451-0.107-0.764-0.2-0.938-0.278c-0.175-0.079-0.306-0.187-0.397-0.325
		c-0.09-0.139-0.135-0.291-0.135-0.458c0-0.152,0.037-0.293,0.111-0.423c0.074-0.129,0.175-0.237,0.303-0.323
		c0.095-0.067,0.226-0.123,0.391-0.169c0.165-0.046,0.342-0.069,0.532-0.069c0.285,0,0.535,0.038,0.75,0.115
		c0.215,0.078,0.375,0.182,0.477,0.314s0.173,0.308,0.212,0.529l-0.602,0.077c-0.027-0.176-0.106-0.313-0.237-0.411
		c-0.131-0.099-0.316-0.148-0.555-0.148c-0.283,0-0.485,0.044-0.605,0.132s-0.181,0.19-0.181,0.308c0,0.075,0.026,0.143,0.076,0.203
		c0.05,0.062,0.129,0.114,0.236,0.154c0.062,0.021,0.243,0.071,0.544,0.148c0.435,0.109,0.739,0.199,0.911,0.269
		s0.308,0.171,0.405,0.304c0.098,0.133,0.147,0.298,0.147,0.495c0,0.193-0.06,0.375-0.179,0.545
		c-0.12,0.171-0.292,0.302-0.518,0.396c-0.225,0.093-0.481,0.14-0.765,0.14c-0.472,0-0.831-0.092-1.078-0.276
		C164.113,36.385,163.955,36.113,163.887,35.75z"/>
</g>
<rect id="_x3C_Sector_x3E__1_" x="-0.15" y="0.513" fill="none" width="170.625" height="40"/>
</svg>
