<?xml version="1.0" encoding="utf-8"?>
<!-- Generator: Adobe Illustrator 17.0.0, SVG Export Plug-In . SVG Version: 6.00 Build 0)  -->
<!DOCTYPE svg PUBLIC "-//W3C//DTD SVG 1.1//EN" "http://www.w3.org/Graphics/SVG/1.1/DTD/svg11.dtd">
<svg version="1.1" id="Capa_1" xmlns="http://www.w3.org/2000/svg" xmlns:xlink="http://www.w3.org/1999/xlink" x="0px" y="0px"
	 width="270px" height="40px" viewBox="0 0 270 40" enable-background="new 0 0 270 40" xml:space="preserve">
<g>
	<path fill="#EE731B" d="M269.796,34.159c0,2.761-2.2,5-4.914,5H163.71c-2.714,0-4.914-2.239-4.914-5v-28c0-2.761,2.2-5,4.914-5
		h101.171c2.714,0,4.914,2.239,4.914,5V34.159z"/>
	<path fill="#1D71B8" d="M28.47,27.168c-2.172,0.563-4.047,0.844-5.625,0.844c-2.992,0-5.291-0.787-6.896-2.361
		s-2.408-3.83-2.408-6.768c0-2.914,0.803-5.156,2.408-6.727s3.893-2.355,6.861-2.355c1.898,0,3.781,0.223,5.648,0.668v2.824
		c-2.164-0.742-3.941-1.113-5.332-1.113c-1.836,0-3.254,0.586-4.254,1.758s-1.5,2.832-1.5,4.98c0,2.078,0.535,3.709,1.605,4.893
		s2.547,1.775,4.43,1.775c0.414,0,0.898-0.059,1.453-0.176v-5.707h3.609V27.168z"/>
	<path fill="#E30613" d="M42.989,27.145c-1.648,0.484-3.211,0.727-4.688,0.727c-2.148,0-3.844-0.609-5.086-1.828
		s-1.863-2.883-1.863-4.992c0-1.992,0.568-3.596,1.705-4.811s2.639-1.822,4.506-1.822c1.883,0,3.258,0.594,4.125,1.781
		s1.301,3.066,1.301,5.637h-7.98c0.234,2.453,1.582,3.68,4.043,3.68c1.164,0,2.477-0.27,3.938-0.809V27.145z M34.962,19.879h4.617
		c0-2.195-0.707-3.293-2.121-3.293C36.02,16.586,35.188,17.684,34.962,19.879z"/>
	<path fill="#F39200" d="M46.575,27.578V14.711h3.469v2.426c1.133-1.813,2.594-2.719,4.383-2.719c1.148,0,2.055,0.363,2.719,1.09
		s0.996,1.719,0.996,2.977v9.094h-3.469V19.34c0-1.461-0.484-2.191-1.453-2.191c-1.102,0-2.16,0.777-3.176,2.332v8.098H46.575z"/>
	<path fill="#F39200" d="M67.739,27.871c-2.008,0-3.604-0.607-4.787-1.822s-1.775-2.85-1.775-4.904c0-2.078,0.596-3.719,1.787-4.922
		s2.811-1.805,4.857-1.805c2.055,0,3.678,0.602,4.869,1.805s1.787,2.836,1.787,4.898c0,2.109-0.598,3.762-1.793,4.957
		S69.841,27.871,67.739,27.871z M67.798,25.703c1.992,0,2.988-1.527,2.988-4.582c0-1.398-0.264-2.504-0.791-3.316
		s-1.252-1.219-2.174-1.219c-0.914,0-1.635,0.406-2.162,1.219s-0.791,1.926-0.791,3.34c0,1.398,0.262,2.508,0.785,3.328
		S66.891,25.703,67.798,25.703z"/>
	<path fill="#008D36" d="M77.665,27.578V14.711h3.328v2.426c1.016-1.813,2.461-2.719,4.336-2.719c0.969,0,1.766,0.238,2.391,0.715
		s1.008,1.145,1.148,2.004c1.203-1.813,2.656-2.719,4.359-2.719c2.352,0,3.527,1.297,3.527,3.891v9.27h-3.328v-8.133
		c0-1.523-0.508-2.285-1.523-2.285c-1.039,0-2.051,0.75-3.035,2.25v8.168H85.54v-8.133c0-1.531-0.512-2.297-1.535-2.297
		s-2.027,0.754-3.012,2.262v8.168H77.665z"/>
	<g>
		<path fill="#FFFFFF" d="M169.86,11.889c1.158-0.196,2.784-0.345,5.076-0.345c2.316,0,3.967,0.443,5.076,1.331
			c1.06,0.838,1.774,2.218,1.774,3.844c0,1.627-0.542,3.007-1.528,3.943c-1.281,1.207-3.179,1.749-5.396,1.749
			c-0.492,0-0.937-0.024-1.281-0.073v5.938h-3.721V11.889z M173.581,19.43c0.32,0.074,0.715,0.099,1.257,0.099
			c1.996,0,3.229-1.011,3.229-2.711c0-1.527-1.06-2.439-2.933-2.439c-0.764,0-1.281,0.074-1.553,0.147V19.43z"/>
		<path fill="#FFFFFF" d="M190.462,28.276l-0.222-1.207h-0.073c-0.789,0.961-2.021,1.479-3.45,1.479
			c-2.439,0-3.894-1.774-3.894-3.697c0-3.129,2.81-4.632,7.072-4.607V20.07c0-0.641-0.345-1.553-2.193-1.553
			c-1.232,0-2.538,0.419-3.326,0.912l-0.69-2.415c0.838-0.468,2.489-1.06,4.683-1.06c4.017,0,5.298,2.366,5.298,5.2v4.188
			c0,1.158,0.049,2.268,0.173,2.933H190.462z M190.019,22.584c-1.972-0.024-3.499,0.443-3.499,1.897
			c0,0.961,0.641,1.429,1.479,1.429c0.937,0,1.7-0.615,1.947-1.38c0.049-0.196,0.073-0.419,0.073-0.641V22.584z"/>
		<path fill="#FFFFFF" d="M200.615,12.776v3.45h2.687v2.76h-2.687v4.361c0,1.454,0.345,2.119,1.479,2.119
			c0.469,0,0.838-0.049,1.109-0.099l0.024,2.834c-0.493,0.197-1.38,0.32-2.439,0.32c-1.208,0-2.218-0.419-2.81-1.034
			c-0.689-0.715-1.035-1.873-1.035-3.573v-4.929h-1.602v-2.76h1.602v-2.612L200.615,12.776z"/>
		<path fill="#FFFFFF" d="M209.659,12.776v3.45h2.687v2.76h-2.687v4.361c0,1.454,0.345,2.119,1.479,2.119
			c0.469,0,0.838-0.049,1.109-0.099l0.024,2.834c-0.493,0.197-1.38,0.32-2.439,0.32c-1.208,0-2.218-0.419-2.81-1.034
			c-0.69-0.715-1.035-1.873-1.035-3.573v-4.929h-1.602v-2.76h1.602v-2.612L209.659,12.776z"/>
		<path fill="#FFFFFF" d="M217.275,23.446c0.123,1.553,1.65,2.292,3.4,2.292c1.281,0,2.316-0.173,3.327-0.493l0.492,2.538
			c-1.231,0.493-2.735,0.739-4.361,0.739c-4.091,0-6.432-2.365-6.432-6.136c0-3.056,1.897-6.432,6.087-6.432
			c3.894,0,5.372,3.031,5.372,6.013c0,0.641-0.074,1.208-0.123,1.479H217.275z M221.687,20.884c0-0.912-0.395-2.439-2.119-2.439
			c-1.577,0-2.219,1.429-2.317,2.439H221.687z"/>
		<path fill="#FFFFFF" d="M227.403,20.193c0-1.774-0.049-2.933-0.099-3.967h3.229l0.123,2.218h0.099
			c0.616-1.75,2.095-2.489,3.253-2.489c0.345,0,0.518,0,0.789,0.05v3.523c-0.271-0.049-0.592-0.099-1.011-0.099
			c-1.38,0-2.316,0.739-2.563,1.897c-0.05,0.246-0.074,0.542-0.074,0.838v6.111h-3.746V20.193z"/>
		<path fill="#FFFFFF" d="M236.768,20.07c0-1.503-0.049-2.784-0.099-3.844h3.253l0.173,1.65h0.074
			c0.492-0.764,1.725-1.922,3.721-1.922c2.464,0,4.313,1.627,4.313,5.175v7.146h-3.746v-6.678c0-1.553-0.542-2.612-1.897-2.612
			c-1.034,0-1.65,0.715-1.897,1.404c-0.099,0.222-0.147,0.592-0.147,0.937v6.949h-3.746V20.07z"/>
		<path fill="#FFFFFF" d="M251.185,24.999c0.69,0.419,2.119,0.911,3.229,0.911c1.134,0,1.602-0.394,1.602-1.01
			s-0.37-0.912-1.774-1.38c-2.489-0.838-3.45-2.193-3.425-3.622c0-2.243,1.922-3.943,4.903-3.943c1.405,0,2.662,0.32,3.401,0.69
			l-0.666,2.587c-0.542-0.296-1.577-0.689-2.612-0.689c-0.911,0-1.429,0.369-1.429,0.985c0,0.566,0.468,0.862,1.946,1.38
			c2.292,0.789,3.253,1.947,3.277,3.721c0,2.243-1.773,3.894-5.224,3.894c-1.577,0-2.982-0.345-3.894-0.838L251.185,24.999z"/>
	</g>
	<g>
		<path fill="#EE731B" d="M132.92,10.21v4.944v3.455v4.207c0,0.319-0.022,0.602-0.04,0.893c-0.092,1.514-0.411,2.669-0.957,3.455
			c-0.623,0.896-1.525,1.338-2.686,1.338c-1.116,0-1.991-0.456-2.606-1.338c-0.554-0.795-0.883-1.954-0.978-3.455
			c-0.018-0.291-0.041-0.576-0.041-0.893v-4.207v-3.455V10.21h-4.546v4.944v3.455v3.818c0,0.443,0.012,0.87,0.036,1.282
			c0.075,1.31,0.275,2.454,0.58,3.455c1.112,3.645,3.694,5.302,7.405,5.302c3.826,0,6.516-1.73,7.687-5.302
			c0.33-1.007,0.546-2.152,0.625-3.455c0.024-0.392,0.036-0.798,0.036-1.217v-3.883v-3.455V10.21H132.92z"/>
		<polygon fill="#EE731B" points="141.357,10.21 141.357,15.154 141.357,18.609 141.357,23.709 141.357,27.164 141.357,32.108 
			145.902,32.108 145.902,27.164 145.902,23.709 145.902,18.609 145.902,15.154 145.902,10.21 		"/>
	</g>
	<path fill="#55505A" d="M146.049,0.338h-25.455c-4.017,0-7.273,3.256-7.273,7.273v25.455c0,4.017,3.256,7.273,7.273,7.273h25.455
		c4.017,0,7.273-3.256,7.273-7.273V7.611C153.321,3.594,150.065,0.338,146.049,0.338z M149.988,30.944
		c0,3.347-2.713,6.061-6.061,6.061h-21.212c-3.347,0-6.061-2.713-6.061-6.061V9.732c0-3.347,2.713-6.061,6.061-6.061h21.212
		c3.347,0,6.061,2.713,6.061,6.061V30.944z"/>
	<path fill="#55505A" d="M0.22,1.338v38h108.3v-38H0.22z M104.72,35.538H4.02v-30.4h100.7V35.538z"/>
	<rect x="104.821" y="15.563" fill="#55505A" width="11.835" height="3.343"/>
	<rect x="104.719" y="22.25" fill="#55505A" width="11.938" height="3.343"/>
	<rect x="104.613" y="18.906" fill="#FDFCFB" width="12.131" height="3.343"/>
</g>
</svg>
