<?xml version="1.0" encoding="utf-8"?>
<!-- Generator: Adobe Illustrator 17.0.0, SVG Export Plug-In . SVG Version: 6.00 Build 0)  -->
<!DOCTYPE svg PUBLIC "-//W3C//DTD SVG 1.1//EN" "http://www.w3.org/Graphics/SVG/1.1/DTD/svg11.dtd">
<svg version="1.1" id="Capa_1" xmlns="http://www.w3.org/2000/svg" xmlns:xlink="http://www.w3.org/1999/xlink" x="0px" y="0px"
	 width="194.25px" height="45.75px" viewBox="0 0 194.25 45.75" enable-background="new 0 0 194.25 45.75" xml:space="preserve">
<g>
	<g>
		<path d="M15.574,21.502c-0.569,0.226-1.323,0.45-2.261,0.673c-0.939,0.223-1.874,0.334-2.807,0.334
			c-2.162,0-3.854-0.597-5.077-1.792c-1.223-1.195-1.835-2.846-1.835-4.952c0-2.008,0.617-3.626,1.852-4.856
			c1.234-1.23,2.955-1.845,5.162-1.845c0.836,0,1.632,0.077,2.389,0.23c0.756,0.153,1.598,0.458,2.526,0.915v3.029h-0.367
			c-0.159-0.122-0.392-0.294-0.7-0.517c-0.307-0.223-0.603-0.412-0.887-0.568c-0.33-0.185-0.716-0.344-1.156-0.477
			c-0.441-0.133-0.909-0.2-1.404-0.2c-0.58,0-1.107,0.087-1.579,0.26c-0.472,0.174-0.896,0.44-1.271,0.799
			c-0.358,0.347-0.641,0.788-0.849,1.324c-0.208,0.535-0.311,1.153-0.311,1.853c0,1.429,0.372,2.523,1.118,3.281
			c0.745,0.758,1.846,1.137,3.302,1.137c0.125,0,0.263-0.003,0.414-0.009c0.15-0.006,0.289-0.014,0.414-0.026v-2.534H9.713v-2.439
			h5.862V21.502z"/>
		<path d="M27.776,17.943h-7.031c0.045,0.764,0.331,1.348,0.858,1.753c0.526,0.405,1.301,0.608,2.325,0.608
			c0.648,0,1.277-0.118,1.886-0.356c0.609-0.238,1.089-0.492,1.442-0.764h0.341v2.508c-0.694,0.283-1.348,0.489-1.962,0.616
			S24.34,22.5,23.595,22.5c-1.923,0-3.396-0.44-4.42-1.319s-1.536-2.132-1.536-3.758c0-1.609,0.485-2.883,1.455-3.823
			c0.97-0.941,2.3-1.411,3.989-1.411c1.558,0,2.73,0.401,3.515,1.203c0.785,0.801,1.177,1.954,1.177,3.458V17.943z M24.721,16.111
			c-0.017-0.654-0.176-1.146-0.478-1.476c-0.302-0.33-0.771-0.495-1.408-0.495c-0.592,0-1.078,0.156-1.459,0.469
			c-0.381,0.312-0.595,0.813-0.64,1.502H24.721z"/>
		<path d="M39.568,22.239h-3.08v-4.835c0-0.394-0.02-0.785-0.06-1.176c-0.04-0.39-0.108-0.678-0.205-0.863
			c-0.114-0.214-0.28-0.37-0.499-0.469c-0.219-0.099-0.525-0.148-0.917-0.148c-0.279,0-0.562,0.047-0.849,0.139
			c-0.287,0.092-0.599,0.24-0.934,0.443v6.909h-3.08v-9.747h3.08v1.076c0.545-0.434,1.069-0.767,1.572-0.998
			c0.503-0.231,1.061-0.347,1.674-0.347c1.034,0,1.842,0.307,2.424,0.92c0.582,0.613,0.873,1.531,0.873,2.751V22.239z"/>
		<path d="M52.188,17.37c0,1.603-0.46,2.866-1.378,3.788c-0.919,0.923-2.209,1.385-3.87,1.385c-1.661,0-2.951-0.462-3.87-1.385
			c-0.919-0.922-1.378-2.186-1.378-3.788c0-1.614,0.462-2.882,1.387-3.802c0.924-0.92,2.211-1.38,3.861-1.38
			c1.672,0,2.965,0.463,3.878,1.389C51.731,14.503,52.188,15.767,52.188,17.37z M48.408,19.74c0.199-0.249,0.348-0.548,0.448-0.898
			c0.099-0.35,0.149-0.835,0.149-1.454c0-0.573-0.051-1.053-0.154-1.441s-0.245-0.698-0.427-0.929
			c-0.182-0.238-0.401-0.405-0.657-0.503s-0.532-0.148-0.828-0.148c-0.296,0-0.559,0.04-0.789,0.122
			c-0.23,0.081-0.451,0.243-0.661,0.486c-0.188,0.226-0.337,0.535-0.448,0.929c-0.111,0.394-0.166,0.888-0.166,1.484
			c0,0.533,0.048,0.993,0.145,1.385c0.097,0.39,0.239,0.704,0.427,0.941c0.182,0.226,0.399,0.391,0.653,0.495
			c0.253,0.104,0.542,0.156,0.866,0.156c0.278,0,0.545-0.047,0.798-0.144C48.017,20.126,48.231,19.965,48.408,19.74z"/>
		<path d="M63.749,15.33v6.909h-3.08V17.37c0-0.474-0.012-0.878-0.034-1.211c-0.023-0.332-0.085-0.603-0.188-0.811
			c-0.102-0.208-0.258-0.36-0.465-0.456c-0.208-0.095-0.499-0.143-0.875-0.143c-0.302,0-0.595,0.062-0.879,0.187
			c-0.285,0.124-0.541,0.256-0.768,0.395v6.909h-3.08v-9.747h3.08v1.076c0.528-0.422,1.034-0.752,1.517-0.989
			s1.017-0.356,1.602-0.356c0.631,0,1.187,0.144,1.67,0.429c0.483,0.287,0.86,0.708,1.133,1.263c0.613-0.526,1.21-0.941,1.789-1.241
			c0.579-0.301,1.147-0.451,1.704-0.451c1.034,0,1.819,0.316,2.356,0.946c0.537,0.63,0.805,1.539,0.805,2.725v6.345h-3.08V17.37
			c0-0.481-0.01-0.885-0.03-1.215c-0.02-0.33-0.081-0.599-0.183-0.807c-0.097-0.208-0.251-0.36-0.461-0.456
			c-0.211-0.095-0.507-0.143-0.887-0.143c-0.256,0-0.507,0.045-0.751,0.135C64.401,14.973,64.102,15.122,63.749,15.33z"/>
	</g>
	<g>
		<path d="M119.746,13.395c0,0.579-0.099,1.145-0.299,1.697c-0.199,0.553-0.483,1.017-0.853,1.393
			c-0.507,0.509-1.07,0.894-1.694,1.154c-0.622,0.26-1.398,0.391-2.325,0.391h-2.039v4.21h-3.277V9.316h5.393
			c0.807,0,1.489,0.071,2.043,0.213c0.555,0.142,1.046,0.355,1.472,0.638c0.512,0.342,0.903,0.778,1.173,1.311
			C119.611,12.01,119.746,12.649,119.746,13.395z M116.358,13.469c0-0.364-0.097-0.677-0.29-0.939
			c-0.193-0.263-0.418-0.446-0.674-0.55c-0.341-0.139-0.674-0.215-0.998-0.23s-0.757-0.022-1.297-0.022h-0.563v3.862h0.939
			c0.557,0,1.017-0.035,1.378-0.104c0.361-0.069,0.664-0.208,0.909-0.416c0.21-0.185,0.363-0.406,0.456-0.662
			C116.312,14.152,116.358,13.839,116.358,13.469z"/>
		<path d="M127.698,21.207c-0.165,0.127-0.37,0.281-0.614,0.46c-0.244,0.179-0.475,0.321-0.691,0.425
			c-0.302,0.139-0.614,0.241-0.939,0.309c-0.324,0.066-0.68,0.099-1.067,0.099c-0.91,0-1.672-0.286-2.287-0.859
			c-0.614-0.573-0.922-1.305-0.922-2.196c0-0.712,0.157-1.293,0.469-1.745c0.313-0.451,0.756-0.807,1.331-1.068
			c0.569-0.26,1.274-0.445,2.116-0.555c0.842-0.11,1.715-0.191,2.62-0.243v-0.052c0-0.538-0.216-0.91-0.648-1.115
			c-0.432-0.205-1.07-0.308-1.911-0.308c-0.507,0-1.046,0.091-1.621,0.273c-0.575,0.182-0.987,0.323-1.237,0.421h-0.282v-2.352
			c0.324-0.087,0.852-0.189,1.582-0.308c0.731-0.118,1.464-0.178,2.198-0.178c1.746,0,3.007,0.273,3.785,0.82
			c0.776,0.547,1.164,1.405,1.164,2.573v6.631h-3.046V21.207z M127.698,19.69v-2.025c-0.415,0.035-0.865,0.082-1.348,0.143
			s-0.85,0.131-1.101,0.212c-0.307,0.098-0.542,0.241-0.704,0.428c-0.163,0.187-0.244,0.434-0.244,0.74
			c0,0.202,0.017,0.366,0.051,0.493c0.034,0.127,0.119,0.248,0.256,0.363c0.131,0.116,0.287,0.2,0.469,0.256
			c0.182,0.054,0.466,0.082,0.853,0.082c0.307,0,0.618-0.063,0.935-0.19C127.182,20.065,127.459,19.898,127.698,19.69z"/>
		<path d="M139.695,22.154c-0.33,0.087-0.68,0.155-1.05,0.204c-0.37,0.049-0.822,0.073-1.357,0.073
			c-1.195,0-2.084-0.246-2.667-0.738c-0.583-0.492-0.874-1.333-0.874-2.526V14.61h-1.263v-2.118h1.263V9.706h3.08v2.786h2.867v2.118
			h-2.867v3.46c0,0.342,0.003,0.64,0.009,0.896c0.005,0.255,0.051,0.484,0.136,0.686c0.08,0.203,0.22,0.364,0.421,0.482
			c0.202,0.119,0.495,0.178,0.88,0.178c0.159,0,0.368-0.035,0.625-0.104c0.258-0.069,0.438-0.133,0.541-0.191h0.255V22.154z"/>
		<path d="M147.656,22.154c-0.33,0.087-0.68,0.155-1.05,0.204s-0.822,0.073-1.357,0.073c-1.195,0-2.083-0.246-2.667-0.738
			c-0.583-0.492-0.874-1.333-0.874-2.526V14.61h-1.263v-2.118h1.263V9.706h3.08v2.786h2.867v2.118h-2.867v3.46
			c0,0.342,0.003,0.64,0.009,0.896c0.005,0.255,0.051,0.484,0.136,0.686c0.08,0.203,0.22,0.364,0.421,0.482
			c0.202,0.119,0.495,0.178,0.88,0.178c0.159,0,0.368-0.035,0.625-0.104c0.258-0.069,0.438-0.133,0.541-0.191h0.255V22.154z"/>
		<path d="M158.928,17.943h-7.031c0.046,0.764,0.331,1.348,0.858,1.753c0.526,0.405,1.301,0.608,2.325,0.608
			c0.648,0,1.277-0.118,1.886-0.356s1.089-0.492,1.442-0.764h0.341v2.508c-0.694,0.283-1.348,0.489-1.963,0.616
			c-0.614,0.127-1.294,0.191-2.039,0.191c-1.923,0-3.396-0.44-4.42-1.319s-1.536-2.132-1.536-3.758c0-1.608,0.485-2.883,1.455-3.823
			c0.97-0.94,2.299-1.41,3.989-1.41c1.558,0,2.73,0.401,3.515,1.202c0.785,0.802,1.178,1.954,1.178,3.459V17.943z M155.873,16.112
			c-0.017-0.654-0.176-1.146-0.478-1.476c-0.302-0.33-0.771-0.495-1.408-0.495c-0.592,0-1.078,0.156-1.459,0.469
			c-0.381,0.312-0.594,0.813-0.64,1.502H155.873z"/>
		<path d="M168.04,15.47h-0.272c-0.131-0.046-0.341-0.081-0.63-0.104c-0.29-0.023-0.531-0.035-0.724-0.035
			c-0.438,0-0.823,0.029-1.158,0.087c-0.335,0.058-0.696,0.156-1.081,0.295v6.527h-3.08v-9.747h3.08v1.432
			c0.676-0.59,1.263-0.982,1.762-1.176c0.5-0.194,0.959-0.291,1.379-0.291c0.108,0,0.23,0.003,0.366,0.009
			c0.137,0.006,0.255,0.015,0.358,0.026V15.47z"/>
		<path d="M179.406,22.24h-3.08v-4.835c0-0.393-0.02-0.786-0.06-1.176c-0.04-0.391-0.108-0.678-0.205-0.864
			c-0.114-0.214-0.28-0.37-0.5-0.469c-0.219-0.098-0.524-0.148-0.917-0.148c-0.278,0-0.562,0.047-0.849,0.139
			c-0.288,0.093-0.599,0.24-0.935,0.443v6.909h-3.08v-9.747h3.08v1.076c0.545-0.434,1.07-0.767,1.572-0.998
			c0.503-0.231,1.061-0.347,1.674-0.347c1.034,0,1.842,0.307,2.425,0.92c0.583,0.613,0.873,1.531,0.873,2.751V22.24z"/>
		<path d="M190.558,19.15c0,1.007-0.444,1.818-1.331,2.435c-0.887,0.615-2.102,0.924-3.643,0.924c-0.853,0-1.627-0.081-2.321-0.243
			c-0.694-0.162-1.251-0.342-1.672-0.538v-2.569h0.282c0.154,0.11,0.331,0.23,0.534,0.361c0.202,0.129,0.487,0.27,0.857,0.421
			c0.319,0.133,0.68,0.247,1.084,0.343c0.404,0.095,0.836,0.143,1.297,0.143c0.603,0,1.05-0.068,1.34-0.204
			c0.29-0.136,0.435-0.337,0.435-0.603c0-0.238-0.085-0.41-0.256-0.516c-0.171-0.107-0.495-0.21-0.973-0.309
			c-0.227-0.052-0.536-0.109-0.926-0.169c-0.389-0.062-0.743-0.135-1.062-0.222c-0.87-0.231-1.516-0.591-1.937-1.081
			c-0.421-0.489-0.631-1.098-0.631-1.827c0-0.937,0.437-1.717,1.309-2.339c0.873-0.622,2.066-0.933,3.58-0.933
			c0.717,0,1.403,0.074,2.061,0.221c0.656,0.148,1.17,0.305,1.54,0.473v2.465h-0.265c-0.455-0.318-0.974-0.577-1.558-0.777
			c-0.583-0.2-1.173-0.299-1.77-0.299c-0.495,0-0.911,0.069-1.25,0.208c-0.338,0.139-0.507,0.336-0.507,0.59
			c0,0.232,0.077,0.408,0.23,0.529c0.154,0.122,0.515,0.243,1.084,0.365c0.313,0.064,0.65,0.126,1.012,0.187
			c0.361,0.061,0.724,0.138,1.088,0.23c0.807,0.214,1.405,0.551,1.792,1.011C190.365,17.887,190.558,18.461,190.558,19.15z"/>
	</g>
	<g>
		<g>
			<path d="M83.492,8.916v8.525c0,2.549,0.95,3.845,2.635,3.845c1.728,0,2.678-1.23,2.678-3.845V8.916h3.283v8.305
				c0,4.57-2.268,6.745-6.069,6.745c-3.672,0-5.832-2.065-5.832-6.789V8.916H83.492z"/>
			<path d="M98.244,8.916v14.808h-3.305V8.916H98.244z"/>
		</g>
		<path fill="#EE731B" d="M74.87,1.83v29.014h28.523V1.83H74.87z M100.506,27.736H77.544V4.622h22.963V27.736z"/>
	</g>
	<rect x="3.699" y="27.736" width="65.912" height="2.176"/>
	<rect x="108.896" y="27.736" width="81.764" height="2.176"/>
	<g>
		<path d="M8.419,35.415h0.759v3.161c0,0.55-0.065,0.987-0.195,1.31c-0.13,0.324-0.365,0.587-0.706,0.789
			c-0.34,0.203-0.786,0.305-1.339,0.305c-0.537,0-0.976-0.089-1.318-0.265c-0.342-0.177-0.585-0.433-0.731-0.767
			S4.67,39.155,4.67,38.576v-3.161h0.759v3.157c0,0.475,0.046,0.825,0.139,1.05s0.252,0.399,0.477,0.521
			c0.225,0.122,0.501,0.183,0.827,0.183c0.558,0,0.955-0.121,1.193-0.362c0.237-0.242,0.356-0.706,0.356-1.392V35.415z"/>
		<path d="M10.07,39.703l0.696-0.104c0.039,0.266,0.148,0.47,0.326,0.611c0.178,0.142,0.428,0.213,0.749,0.213
			c0.323,0,0.563-0.063,0.719-0.188c0.156-0.126,0.235-0.273,0.235-0.443c0-0.152-0.069-0.271-0.207-0.358
			c-0.097-0.06-0.336-0.136-0.719-0.228c-0.516-0.124-0.874-0.232-1.073-0.322c-0.2-0.091-0.351-0.217-0.454-0.377
			c-0.103-0.161-0.154-0.338-0.154-0.532c0-0.176,0.042-0.34,0.127-0.491c0.084-0.15,0.2-0.276,0.346-0.375
			c0.11-0.077,0.259-0.142,0.448-0.196c0.189-0.053,0.392-0.08,0.608-0.08c0.326,0,0.612,0.045,0.858,0.134
			c0.246,0.09,0.428,0.211,0.545,0.364c0.117,0.153,0.198,0.358,0.243,0.614l-0.688,0.089c-0.031-0.204-0.122-0.363-0.272-0.477
			c-0.15-0.115-0.362-0.171-0.636-0.171c-0.323,0-0.554,0.051-0.692,0.153c-0.138,0.102-0.207,0.221-0.207,0.358
			c0,0.087,0.029,0.166,0.086,0.235c0.058,0.072,0.147,0.132,0.27,0.179c0.071,0.025,0.278,0.082,0.622,0.171
			c0.498,0.127,0.845,0.231,1.042,0.312c0.197,0.081,0.351,0.198,0.463,0.353s0.168,0.346,0.168,0.574
			c0,0.224-0.068,0.435-0.205,0.633c-0.137,0.198-0.334,0.351-0.592,0.459c-0.258,0.108-0.55,0.162-0.876,0.162
			c-0.539,0-0.951-0.107-1.234-0.321C10.328,40.44,10.148,40.123,10.07,39.703z"/>
		<path d="M17.198,39.609l0.727,0.086c-0.115,0.406-0.327,0.72-0.637,0.944c-0.31,0.224-0.707,0.336-1.189,0.336
			c-0.607,0-1.089-0.179-1.445-0.536c-0.356-0.356-0.534-0.857-0.534-1.502c0-0.667,0.18-1.184,0.54-1.552
			c0.36-0.368,0.826-0.553,1.4-0.553c0.555,0,1.009,0.181,1.361,0.541c0.352,0.361,0.528,0.868,0.528,1.522
			c0,0.04-0.001,0.1-0.004,0.179h-3.097c0.026,0.436,0.155,0.769,0.387,1c0.232,0.231,0.521,0.347,0.868,0.347
			c0.258,0,0.478-0.065,0.661-0.194C16.946,40.099,17.091,39.893,17.198,39.609z M14.887,38.523h2.319
			c-0.031-0.333-0.12-0.583-0.266-0.75c-0.224-0.259-0.515-0.387-0.872-0.387c-0.323,0-0.595,0.103-0.815,0.31
			C15.032,37.901,14.91,38.178,14.887,38.523z"/>
		<path d="M18.801,40.886v-3.963h0.634v0.601c0.162-0.281,0.311-0.466,0.447-0.556c0.137-0.089,0.288-0.134,0.452-0.134
			c0.237,0,0.478,0.072,0.723,0.216l-0.242,0.623c-0.172-0.097-0.344-0.145-0.516-0.145c-0.154,0-0.292,0.044-0.414,0.132
			c-0.123,0.088-0.21,0.21-0.262,0.368c-0.078,0.239-0.117,0.5-0.117,0.783v2.075H18.801z"/>
		<path d="M23.919,40.886v-5.471h0.759v5.471H23.919z"/>
		<path d="M25.925,40.886v-3.963h0.634v0.564c0.305-0.436,0.746-0.653,1.322-0.653c0.25,0,0.48,0.042,0.69,0.129
			c0.21,0.086,0.367,0.198,0.471,0.337c0.104,0.14,0.177,0.305,0.219,0.497c0.026,0.125,0.039,0.342,0.039,0.653v2.437h-0.704
			v-2.411c0-0.274-0.027-0.478-0.082-0.614c-0.055-0.135-0.152-0.244-0.291-0.324c-0.139-0.081-0.303-0.121-0.49-0.121
			c-0.3,0-0.559,0.091-0.776,0.272c-0.218,0.182-0.326,0.526-0.326,1.033v2.165H25.925z"/>
		<path d="M31.916,40.285l0.102,0.593c-0.198,0.04-0.375,0.06-0.532,0.06c-0.256,0-0.453-0.039-0.594-0.116
			c-0.141-0.076-0.24-0.179-0.297-0.304c-0.057-0.125-0.086-0.39-0.086-0.793v-2.28h-0.516v-0.523h0.516v-0.981l0.7-0.403v1.384
			h0.708v0.523h-0.708v2.317c0,0.192,0.012,0.315,0.037,0.37c0.024,0.055,0.065,0.098,0.121,0.13
			c0.056,0.033,0.136,0.049,0.241,0.049C31.685,40.311,31.788,40.302,31.916,40.285z"/>
		<path d="M35.446,39.609l0.727,0.086c-0.115,0.406-0.327,0.72-0.637,0.944c-0.31,0.224-0.706,0.336-1.189,0.336
			c-0.607,0-1.089-0.179-1.445-0.536c-0.356-0.356-0.534-0.857-0.534-1.502c0-0.667,0.18-1.184,0.54-1.552
			c0.36-0.368,0.826-0.553,1.4-0.553c0.555,0,1.009,0.181,1.361,0.541c0.352,0.361,0.528,0.868,0.528,1.522
			c0,0.04-0.001,0.1-0.004,0.179h-3.097c0.026,0.436,0.155,0.769,0.387,1c0.232,0.231,0.521,0.347,0.868,0.347
			c0.258,0,0.478-0.065,0.661-0.194C35.195,40.099,35.34,39.893,35.446,39.609z M33.136,38.523h2.319
			c-0.031-0.333-0.12-0.583-0.266-0.75c-0.224-0.259-0.515-0.387-0.872-0.387c-0.323,0-0.595,0.103-0.815,0.31
			C33.281,37.901,33.159,38.178,33.136,38.523z"/>
		<path d="M37.05,40.886v-3.963h0.634v0.601c0.162-0.281,0.311-0.466,0.447-0.556c0.137-0.089,0.288-0.134,0.452-0.134
			c0.237,0,0.478,0.072,0.723,0.216l-0.242,0.623c-0.172-0.097-0.344-0.145-0.516-0.145c-0.154,0-0.292,0.044-0.414,0.132
			c-0.123,0.088-0.21,0.21-0.262,0.368c-0.078,0.239-0.117,0.5-0.117,0.783v2.075H37.05z"/>
		<path d="M39.892,40.886v-3.44h-0.622v-0.523h0.622v-0.421c0-0.266,0.025-0.464,0.074-0.594c0.068-0.174,0.187-0.315,0.358-0.424
			c0.171-0.108,0.41-0.162,0.717-0.162c0.198,0,0.417,0.023,0.657,0.067l-0.105,0.586c-0.146-0.025-0.284-0.038-0.415-0.038
			c-0.214,0-0.365,0.044-0.453,0.131s-0.133,0.25-0.133,0.489v0.366h0.809v0.523h-0.809v3.44H39.892z"/>
		<path d="M44.659,40.397c-0.261,0.211-0.511,0.361-0.753,0.448c-0.241,0.087-0.5,0.13-0.776,0.13c-0.456,0-0.807-0.106-1.052-0.319
			c-0.245-0.213-0.368-0.485-0.368-0.815c0-0.194,0.046-0.371,0.139-0.532c0.093-0.16,0.214-0.289,0.363-0.386
			c0.15-0.097,0.319-0.171,0.506-0.22c0.138-0.035,0.347-0.068,0.626-0.101c0.568-0.064,0.987-0.142,1.255-0.232
			c0.003-0.092,0.004-0.15,0.004-0.175c0-0.274-0.066-0.467-0.199-0.579c-0.18-0.152-0.447-0.227-0.801-0.227
			c-0.331,0-0.576,0.055-0.733,0.166c-0.158,0.111-0.274,0.307-0.35,0.588l-0.688-0.089c0.062-0.281,0.165-0.509,0.309-0.681
			c0.143-0.173,0.35-0.306,0.622-0.4c0.271-0.093,0.585-0.14,0.942-0.14c0.354,0,0.643,0.04,0.864,0.119
			c0.221,0.08,0.384,0.18,0.489,0.3c0.104,0.121,0.177,0.273,0.219,0.458c0.023,0.114,0.035,0.321,0.035,0.619v0.896
			c0,0.624,0.015,1.019,0.045,1.184c0.03,0.166,0.089,0.324,0.178,0.476H44.8C44.727,40.746,44.68,40.583,44.659,40.397z
			 M44.6,38.896c-0.256,0.1-0.639,0.184-1.149,0.254c-0.289,0.04-0.494,0.085-0.614,0.135c-0.12,0.05-0.213,0.123-0.278,0.218
			c-0.065,0.096-0.098,0.203-0.098,0.319c0,0.179,0.071,0.328,0.213,0.448c0.142,0.119,0.35,0.179,0.624,0.179
			c0.271,0,0.512-0.057,0.723-0.17c0.211-0.113,0.366-0.268,0.465-0.465c0.076-0.152,0.113-0.375,0.113-0.672V38.896z"/>
		<path d="M49.113,39.434l0.692,0.086c-0.076,0.455-0.269,0.812-0.581,1.069c-0.311,0.258-0.694,0.386-1.147,0.386
			c-0.568,0-1.025-0.177-1.371-0.531c-0.345-0.355-0.518-0.863-0.518-1.524c0-0.428,0.074-0.803,0.223-1.123
			c0.148-0.321,0.375-0.562,0.678-0.722c0.304-0.161,0.634-0.241,0.991-0.241c0.451,0,0.82,0.109,1.107,0.327
			c0.287,0.217,0.471,0.527,0.552,0.927l-0.685,0.101c-0.065-0.266-0.18-0.466-0.346-0.601c-0.165-0.135-0.366-0.201-0.6-0.201
			c-0.354,0-0.643,0.121-0.864,0.363c-0.222,0.243-0.332,0.626-0.332,1.151c0,0.533,0.107,0.919,0.32,1.161
			c0.214,0.241,0.493,0.362,0.837,0.362c0.276,0,0.507-0.081,0.692-0.243C48.946,40.019,49.063,39.77,49.113,39.434z"/>
		<path d="M53.25,39.609l0.727,0.086c-0.115,0.406-0.327,0.72-0.637,0.944c-0.31,0.224-0.706,0.336-1.189,0.336
			c-0.607,0-1.089-0.179-1.445-0.536c-0.356-0.356-0.534-0.857-0.534-1.502c0-0.667,0.18-1.184,0.54-1.552
			c0.36-0.368,0.826-0.553,1.4-0.553c0.555,0,1.009,0.181,1.361,0.541C53.824,37.735,54,38.242,54,38.896
			c0,0.04-0.001,0.1-0.004,0.179H50.9c0.026,0.436,0.155,0.769,0.387,1c0.232,0.231,0.521,0.347,0.868,0.347
			c0.258,0,0.478-0.065,0.661-0.194C52.998,40.099,53.143,39.893,53.25,39.609z M50.939,38.523h2.319
			c-0.031-0.333-0.12-0.583-0.266-0.75c-0.224-0.259-0.515-0.387-0.872-0.387c-0.323,0-0.595,0.103-0.815,0.31
			C51.084,37.901,50.962,38.178,50.939,38.523z"/>
		<path d="M57.175,40.886v-5.471h1.975c0.446,0,0.786,0.026,1.021,0.079c0.328,0.072,0.608,0.203,0.841,0.392
			c0.302,0.244,0.528,0.555,0.679,0.934c0.15,0.38,0.225,0.813,0.225,1.301c0,0.416-0.051,0.784-0.153,1.105
			c-0.102,0.321-0.232,0.587-0.391,0.796c-0.159,0.21-0.333,0.376-0.522,0.497c-0.189,0.12-0.417,0.213-0.684,0.274
			c-0.267,0.062-0.574,0.094-0.921,0.094H57.175z M57.934,40.24h1.224c0.378,0,0.675-0.034,0.89-0.101
			c0.215-0.067,0.386-0.162,0.514-0.283c0.18-0.171,0.32-0.402,0.42-0.692c0.1-0.29,0.15-0.641,0.15-1.054
			c0-0.572-0.098-1.012-0.295-1.32c-0.197-0.307-0.436-0.513-0.718-0.618c-0.204-0.074-0.531-0.112-0.982-0.112h-1.204V40.24z"/>
		<path d="M65.711,39.609l0.727,0.086c-0.115,0.406-0.327,0.72-0.637,0.944c-0.31,0.224-0.706,0.336-1.189,0.336
			c-0.607,0-1.089-0.179-1.445-0.536c-0.356-0.356-0.534-0.857-0.534-1.502c0-0.667,0.18-1.184,0.54-1.552
			c0.36-0.368,0.826-0.553,1.4-0.553c0.555,0,1.009,0.181,1.361,0.541c0.352,0.361,0.528,0.868,0.528,1.522
			c0,0.04-0.001,0.1-0.004,0.179h-3.097c0.026,0.436,0.155,0.769,0.387,1c0.232,0.231,0.521,0.347,0.868,0.347
			c0.258,0,0.478-0.065,0.661-0.194C65.459,40.099,65.604,39.893,65.711,39.609z M63.4,38.523h2.319
			c-0.031-0.333-0.12-0.583-0.266-0.75c-0.224-0.259-0.515-0.387-0.872-0.387c-0.323,0-0.595,0.103-0.815,0.31
			C63.545,37.901,63.424,38.178,63.4,38.523z"/>
		<path d="M67.041,39.703l0.696-0.104c0.039,0.266,0.148,0.47,0.326,0.611c0.178,0.142,0.428,0.213,0.749,0.213
			c0.323,0,0.563-0.063,0.719-0.188c0.156-0.126,0.235-0.273,0.235-0.443c0-0.152-0.069-0.271-0.207-0.358
			c-0.097-0.06-0.336-0.136-0.719-0.228c-0.516-0.124-0.874-0.232-1.073-0.322c-0.2-0.091-0.351-0.217-0.454-0.377
			c-0.103-0.161-0.154-0.338-0.154-0.532c0-0.176,0.042-0.34,0.127-0.491c0.084-0.15,0.2-0.276,0.346-0.375
			c0.11-0.077,0.259-0.142,0.448-0.196c0.189-0.053,0.392-0.08,0.608-0.08c0.326,0,0.612,0.045,0.858,0.134
			c0.246,0.09,0.428,0.211,0.545,0.364s0.198,0.358,0.243,0.614l-0.688,0.089c-0.031-0.204-0.122-0.363-0.272-0.477
			c-0.15-0.115-0.362-0.171-0.636-0.171c-0.323,0-0.554,0.051-0.692,0.153c-0.138,0.102-0.207,0.221-0.207,0.358
			c0,0.087,0.029,0.166,0.086,0.235c0.058,0.072,0.147,0.132,0.27,0.179c0.071,0.025,0.278,0.082,0.622,0.171
			c0.498,0.127,0.845,0.231,1.042,0.312s0.351,0.198,0.463,0.353s0.168,0.346,0.168,0.574c0,0.224-0.068,0.435-0.205,0.633
			c-0.137,0.198-0.334,0.351-0.592,0.459c-0.258,0.108-0.55,0.162-0.876,0.162c-0.539,0-0.951-0.107-1.234-0.321
			C67.299,40.44,67.119,40.123,67.041,39.703z"/>
		<path d="M71.33,36.187v-0.772h0.704v0.772H71.33z M71.33,40.886v-3.963h0.704v3.963H71.33z"/>
		<path d="M72.976,41.214l0.684,0.097c0.029,0.201,0.108,0.348,0.238,0.44c0.175,0.125,0.413,0.187,0.716,0.187
			c0.326,0,0.577-0.062,0.755-0.187c0.177-0.124,0.297-0.298,0.36-0.522c0.036-0.137,0.053-0.424,0.051-0.862
			c-0.308,0.346-0.691,0.519-1.149,0.519c-0.571,0-1.013-0.196-1.325-0.589c-0.313-0.393-0.469-0.865-0.469-1.415
			c0-0.378,0.072-0.727,0.215-1.047c0.143-0.319,0.352-0.567,0.624-0.74c0.272-0.174,0.592-0.261,0.96-0.261
			c0.49,0,0.894,0.189,1.212,0.567v-0.478h0.649v3.426c0,0.617-0.066,1.055-0.197,1.312c-0.132,0.258-0.34,0.461-0.626,0.61
			c-0.285,0.149-0.637,0.225-1.054,0.225c-0.495,0-0.895-0.107-1.2-0.319C73.113,41.962,72.966,41.642,72.976,41.214z
			 M73.559,38.833c0,0.52,0.108,0.899,0.324,1.138c0.216,0.239,0.488,0.358,0.813,0.358c0.323,0,0.594-0.119,0.813-0.356
			c0.219-0.237,0.328-0.61,0.328-1.118c0-0.485-0.113-0.851-0.338-1.097c-0.225-0.246-0.497-0.369-0.815-0.369
			c-0.313,0-0.579,0.121-0.798,0.363C73.668,37.995,73.559,38.355,73.559,38.833z"/>
		<path d="M77.559,40.886v-3.963h0.634v0.564c0.305-0.436,0.746-0.653,1.322-0.653c0.25,0,0.48,0.042,0.69,0.129
			c0.21,0.086,0.367,0.198,0.471,0.337c0.104,0.14,0.177,0.305,0.219,0.497c0.026,0.125,0.039,0.342,0.039,0.653v2.437H80.23v-2.411
			c0-0.274-0.027-0.478-0.082-0.614c-0.055-0.135-0.152-0.244-0.291-0.324c-0.139-0.081-0.303-0.121-0.49-0.121
			c-0.3,0-0.559,0.091-0.776,0.272c-0.218,0.182-0.326,0.526-0.326,1.033v2.165H77.559z"/>
		<path d="M84.328,40.886v-5.471h2.162c0.38,0,0.671,0.018,0.872,0.052c0.281,0.045,0.517,0.13,0.708,0.256
			c0.19,0.125,0.343,0.301,0.459,0.528c0.116,0.227,0.174,0.475,0.174,0.747c0,0.465-0.155,0.859-0.465,1.181
			c-0.31,0.322-0.871,0.483-1.681,0.483h-1.47v2.224H84.328z M85.086,38.016h1.482c0.49,0,0.838-0.087,1.044-0.261
			c0.206-0.174,0.309-0.419,0.309-0.735c0-0.229-0.061-0.424-0.182-0.587c-0.121-0.163-0.281-0.271-0.479-0.323
			c-0.128-0.033-0.363-0.049-0.708-0.049h-1.466V38.016z"/>
		<path d="M92.289,40.397c-0.261,0.211-0.511,0.361-0.753,0.448c-0.241,0.087-0.5,0.13-0.776,0.13c-0.456,0-0.807-0.106-1.052-0.319
			c-0.245-0.213-0.368-0.485-0.368-0.815c0-0.194,0.046-0.371,0.139-0.532c0.093-0.16,0.214-0.289,0.363-0.386
			c0.15-0.097,0.319-0.171,0.506-0.22c0.138-0.035,0.347-0.068,0.626-0.101c0.568-0.064,0.987-0.142,1.255-0.232
			c0.003-0.092,0.004-0.15,0.004-0.175c0-0.274-0.066-0.467-0.199-0.579c-0.18-0.152-0.447-0.227-0.801-0.227
			c-0.331,0-0.576,0.055-0.733,0.166c-0.158,0.111-0.274,0.307-0.35,0.588l-0.688-0.089c0.062-0.281,0.165-0.509,0.309-0.681
			c0.143-0.173,0.35-0.306,0.622-0.4c0.271-0.093,0.585-0.14,0.942-0.14c0.354,0,0.643,0.04,0.864,0.119
			c0.221,0.08,0.384,0.18,0.489,0.3c0.104,0.121,0.177,0.273,0.219,0.458c0.023,0.114,0.035,0.321,0.035,0.619v0.896
			c0,0.624,0.015,1.019,0.045,1.184c0.03,0.166,0.089,0.324,0.178,0.476H92.43C92.356,40.746,92.309,40.583,92.289,40.397z
			 M92.23,38.896c-0.256,0.1-0.639,0.184-1.149,0.254c-0.289,0.04-0.494,0.085-0.614,0.135c-0.12,0.05-0.213,0.123-0.278,0.218
			c-0.065,0.096-0.098,0.203-0.098,0.319c0,0.179,0.071,0.328,0.213,0.448c0.142,0.119,0.35,0.179,0.624,0.179
			c0.271,0,0.512-0.057,0.723-0.17c0.211-0.113,0.366-0.268,0.465-0.465c0.076-0.152,0.113-0.375,0.113-0.672V38.896z"/>
		<path d="M95.569,40.285l0.102,0.593c-0.198,0.04-0.375,0.06-0.532,0.06c-0.256,0-0.453-0.039-0.594-0.116
			c-0.141-0.076-0.24-0.179-0.297-0.304c-0.057-0.125-0.086-0.39-0.086-0.793v-2.28h-0.516v-0.523h0.516v-0.981l0.7-0.403v1.384
			h0.708v0.523h-0.708v2.317c0,0.192,0.012,0.315,0.037,0.37c0.024,0.055,0.065,0.098,0.121,0.13
			c0.056,0.033,0.136,0.049,0.241,0.049C95.339,40.311,95.442,40.302,95.569,40.285z"/>
		<path d="M97.794,40.285l0.102,0.593c-0.198,0.04-0.376,0.06-0.532,0.06c-0.256,0-0.453-0.039-0.594-0.116
			c-0.141-0.076-0.24-0.179-0.297-0.304c-0.057-0.125-0.086-0.39-0.086-0.793v-2.28H95.87v-0.523h0.516v-0.981l0.7-0.403v1.384
			h0.707v0.523h-0.707v2.317c0,0.192,0.012,0.315,0.037,0.37c0.024,0.055,0.065,0.098,0.121,0.13
			c0.057,0.033,0.136,0.049,0.241,0.049C97.564,40.311,97.666,40.302,97.794,40.285z"/>
		<path d="M101.325,39.609l0.727,0.086c-0.115,0.406-0.327,0.72-0.637,0.944c-0.311,0.224-0.706,0.336-1.189,0.336
			c-0.607,0-1.089-0.179-1.444-0.536c-0.356-0.356-0.534-0.857-0.534-1.502c0-0.667,0.18-1.184,0.54-1.552
			c0.36-0.368,0.827-0.553,1.4-0.553c0.556,0,1.009,0.181,1.361,0.541c0.352,0.361,0.528,0.868,0.528,1.522
			c0,0.04-0.001,0.1-0.003,0.179h-3.097c0.026,0.436,0.155,0.769,0.387,1c0.232,0.231,0.521,0.347,0.868,0.347
			c0.258,0,0.478-0.065,0.66-0.194C101.074,40.099,101.218,39.893,101.325,39.609z M99.014,38.523h2.318
			c-0.031-0.333-0.12-0.583-0.266-0.75c-0.224-0.259-0.515-0.387-0.872-0.387c-0.323,0-0.595,0.103-0.815,0.31
			C99.159,37.901,99.037,38.178,99.014,38.523z"/>
		<path d="M102.928,40.886v-3.963h0.633v0.601c0.162-0.281,0.311-0.466,0.448-0.556c0.137-0.089,0.287-0.134,0.452-0.134
			c0.237,0,0.478,0.072,0.723,0.216l-0.243,0.623c-0.172-0.097-0.343-0.145-0.516-0.145c-0.154,0-0.292,0.044-0.415,0.132
			c-0.122,0.088-0.209,0.21-0.262,0.368c-0.078,0.239-0.117,0.5-0.117,0.783v2.075H102.928z"/>
		<path d="M105.602,40.886v-3.963h0.633v0.564c0.305-0.436,0.746-0.653,1.322-0.653c0.25,0,0.48,0.042,0.69,0.129
			c0.21,0.086,0.367,0.198,0.471,0.337c0.104,0.14,0.177,0.305,0.219,0.497c0.026,0.125,0.039,0.342,0.039,0.653v2.437h-0.704
			v-2.411c0-0.274-0.028-0.478-0.082-0.614c-0.054-0.135-0.152-0.244-0.291-0.324c-0.14-0.081-0.303-0.121-0.491-0.121
			c-0.3,0-0.558,0.091-0.776,0.272c-0.218,0.182-0.327,0.526-0.327,1.033v2.165H105.602z"/>
		<path d="M109.775,39.703l0.696-0.104c0.039,0.266,0.148,0.47,0.327,0.611c0.178,0.142,0.428,0.213,0.748,0.213
			c0.323,0,0.563-0.063,0.72-0.188c0.156-0.126,0.235-0.273,0.235-0.443c0-0.152-0.069-0.271-0.207-0.358
			c-0.096-0.06-0.336-0.136-0.72-0.228c-0.516-0.124-0.874-0.232-1.073-0.322c-0.2-0.091-0.35-0.217-0.454-0.377
			c-0.103-0.161-0.154-0.338-0.154-0.532c0-0.176,0.043-0.34,0.127-0.491c0.084-0.15,0.2-0.276,0.346-0.375
			c0.109-0.077,0.258-0.142,0.448-0.196c0.189-0.053,0.392-0.08,0.608-0.08c0.326,0,0.612,0.045,0.858,0.134
			c0.246,0.09,0.429,0.211,0.546,0.364c0.117,0.153,0.198,0.358,0.242,0.614l-0.688,0.089c-0.031-0.204-0.121-0.363-0.272-0.477
			c-0.15-0.115-0.362-0.171-0.635-0.171c-0.323,0-0.554,0.051-0.693,0.153c-0.138,0.102-0.207,0.221-0.207,0.358
			c0,0.087,0.029,0.166,0.087,0.235c0.057,0.072,0.147,0.132,0.269,0.179c0.071,0.025,0.278,0.082,0.622,0.171
			c0.498,0.127,0.845,0.231,1.042,0.312c0.197,0.081,0.352,0.198,0.464,0.353c0.112,0.154,0.168,0.346,0.168,0.574
			c0,0.224-0.068,0.435-0.205,0.633c-0.137,0.198-0.334,0.351-0.593,0.459c-0.258,0.108-0.55,0.162-0.875,0.162
			c-0.54,0-0.951-0.107-1.234-0.321C110.033,40.44,109.853,40.123,109.775,39.703z"/>
		<path d="M116.344,40.886v-5.471h0.759v4.825h2.823v0.645H116.344z"/>
		<path d="M120.743,36.187v-0.772h0.704v0.772H120.743z M120.743,40.886v-3.963h0.704v3.963H120.743z"/>
		<path d="M123.167,40.886h-0.653v-5.471h0.704v1.952c0.297-0.356,0.676-0.533,1.138-0.533c0.256,0,0.497,0.049,0.725,0.147
			c0.228,0.098,0.415,0.237,0.563,0.414c0.147,0.178,0.262,0.392,0.346,0.643c0.083,0.251,0.125,0.521,0.125,0.806
			c0,0.679-0.176,1.204-0.528,1.575c-0.352,0.371-0.774,0.556-1.267,0.556c-0.49,0-0.875-0.195-1.153-0.586V40.886z M123.159,38.874
			c0,0.475,0.068,0.819,0.203,1.03c0.221,0.346,0.521,0.519,0.899,0.519c0.308,0,0.574-0.128,0.798-0.383
			c0.224-0.255,0.336-0.635,0.336-1.14c0-0.517-0.108-0.899-0.323-1.145c-0.215-0.247-0.475-0.369-0.78-0.369
			c-0.308,0-0.574,0.128-0.798,0.382C123.271,38.023,123.159,38.391,123.159,38.874z"/>
		<path d="M126.964,40.886v-3.963h0.633v0.601c0.162-0.281,0.311-0.466,0.448-0.556c0.137-0.089,0.287-0.134,0.452-0.134
			c0.237,0,0.478,0.072,0.723,0.216l-0.243,0.623c-0.172-0.097-0.343-0.145-0.516-0.145c-0.154,0-0.292,0.044-0.415,0.132
			c-0.122,0.088-0.209,0.21-0.262,0.368c-0.078,0.239-0.117,0.5-0.117,0.783v2.075H126.964z"/>
		<path d="M132.348,40.397c-0.261,0.211-0.512,0.361-0.753,0.448c-0.241,0.087-0.5,0.13-0.776,0.13
			c-0.457,0-0.807-0.106-1.052-0.319c-0.245-0.213-0.368-0.485-0.368-0.815c0-0.194,0.047-0.371,0.139-0.532
			c0.093-0.16,0.214-0.289,0.364-0.386c0.15-0.097,0.319-0.171,0.507-0.22c0.138-0.035,0.346-0.068,0.626-0.101
			c0.568-0.064,0.986-0.142,1.255-0.232c0.002-0.092,0.003-0.15,0.003-0.175c0-0.274-0.066-0.467-0.199-0.579
			c-0.18-0.152-0.447-0.227-0.802-0.227c-0.331,0-0.575,0.055-0.733,0.166c-0.158,0.111-0.274,0.307-0.35,0.588l-0.688-0.089
			c0.063-0.281,0.165-0.509,0.309-0.681c0.143-0.173,0.35-0.306,0.621-0.4c0.271-0.093,0.585-0.14,0.942-0.14
			c0.355,0,0.642,0.04,0.864,0.119c0.221,0.08,0.385,0.18,0.489,0.3c0.104,0.121,0.177,0.273,0.219,0.458
			c0.023,0.114,0.035,0.321,0.035,0.619v0.896c0,0.624,0.015,1.019,0.045,1.184c0.03,0.166,0.089,0.324,0.178,0.476h-0.735
			C132.416,40.746,132.368,40.583,132.348,40.397z M132.29,38.896c-0.256,0.1-0.639,0.184-1.15,0.254
			c-0.29,0.04-0.494,0.085-0.614,0.135c-0.12,0.05-0.213,0.123-0.278,0.218c-0.065,0.096-0.098,0.203-0.098,0.319
			c0,0.179,0.071,0.328,0.213,0.448c0.142,0.119,0.35,0.179,0.623,0.179c0.272,0,0.512-0.057,0.724-0.17
			c0.211-0.113,0.366-0.268,0.465-0.465c0.075-0.152,0.114-0.375,0.114-0.672V38.896z"/>
		<path d="M134.084,40.886v-3.963h0.633v0.601c0.162-0.281,0.311-0.466,0.448-0.556c0.137-0.089,0.287-0.134,0.452-0.134
			c0.237,0,0.478,0.072,0.723,0.216l-0.243,0.623c-0.172-0.097-0.343-0.145-0.516-0.145c-0.154,0-0.292,0.044-0.415,0.132
			c-0.122,0.088-0.209,0.21-0.262,0.368c-0.078,0.239-0.117,0.5-0.117,0.783v2.075H134.084z"/>
		<path d="M136.727,42.412l-0.078-0.631c0.154,0.04,0.288,0.06,0.403,0.06c0.156,0,0.281-0.026,0.376-0.075
			c0.094-0.05,0.17-0.119,0.23-0.209c0.045-0.067,0.116-0.234,0.215-0.5c0.013-0.037,0.034-0.092,0.063-0.164l-1.576-3.971h0.758
			l0.864,2.295c0.112,0.291,0.213,0.597,0.302,0.918c0.08-0.308,0.177-0.609,0.289-0.903l0.887-2.31h0.704l-1.58,4.031
			c-0.17,0.435-0.301,0.735-0.395,0.899c-0.125,0.222-0.269,0.384-0.43,0.487c-0.162,0.103-0.355,0.155-0.579,0.155
			C137.046,42.494,136.894,42.467,136.727,42.412z"/>
		<path d="M143.156,40.886v-3.44h-0.622v-0.523h0.622v-0.421c0-0.266,0.024-0.464,0.074-0.594c0.068-0.174,0.187-0.315,0.358-0.424
			c0.17-0.108,0.41-0.162,0.718-0.162c0.198,0,0.417,0.023,0.657,0.067l-0.106,0.586c-0.146-0.025-0.284-0.038-0.414-0.038
			c-0.214,0-0.365,0.044-0.454,0.131c-0.089,0.087-0.133,0.25-0.133,0.489v0.366h0.809v0.523h-0.809v3.44H143.156z"/>
		<path d="M144.951,38.904c0-0.734,0.214-1.278,0.641-1.631c0.357-0.293,0.793-0.44,1.306-0.44c0.571,0,1.037,0.179,1.4,0.536
			c0.362,0.357,0.544,0.85,0.544,1.48c0,0.51-0.08,0.911-0.241,1.203c-0.16,0.292-0.393,0.519-0.7,0.681
			c-0.306,0.162-0.641,0.242-1.003,0.242c-0.582,0-1.051-0.178-1.41-0.533C145.13,40.086,144.951,39.573,144.951,38.904z
			 M145.674,38.904c0,0.507,0.116,0.888,0.348,1.14c0.232,0.253,0.524,0.379,0.875,0.379c0.349,0,0.64-0.127,0.872-0.381
			c0.232-0.254,0.348-0.64,0.348-1.16c0-0.49-0.117-0.861-0.35-1.114c-0.233-0.252-0.523-0.378-0.87-0.378
			c-0.352,0-0.644,0.125-0.875,0.377C145.79,38.017,145.674,38.396,145.674,38.904z"/>
		<path d="M149.659,40.886v-3.963h0.633v0.601c0.162-0.281,0.311-0.466,0.448-0.556c0.137-0.089,0.287-0.134,0.452-0.134
			c0.237,0,0.478,0.072,0.723,0.216l-0.243,0.623c-0.172-0.097-0.343-0.145-0.516-0.145c-0.154,0-0.292,0.044-0.415,0.132
			c-0.122,0.088-0.209,0.21-0.262,0.368c-0.078,0.239-0.117,0.5-0.117,0.783v2.075H149.659z"/>
		<path d="M157.33,38.74v-0.642l2.428-0.004v2.03c-0.373,0.284-0.757,0.497-1.153,0.64c-0.396,0.143-0.803,0.215-1.22,0.215
			c-0.563,0-1.075-0.115-1.535-0.346c-0.46-0.23-0.807-0.562-1.042-0.998c-0.235-0.435-0.352-0.922-0.352-1.459
			c0-0.532,0.117-1.029,0.35-1.49c0.233-0.462,0.569-0.805,1.007-1.029c0.438-0.224,0.942-0.336,1.514-0.336
			c0.414,0,0.789,0.064,1.124,0.193c0.335,0.128,0.598,0.306,0.788,0.536c0.19,0.229,0.334,0.527,0.434,0.895l-0.684,0.179
			c-0.086-0.279-0.193-0.498-0.32-0.657c-0.128-0.159-0.311-0.287-0.547-0.383c-0.237-0.096-0.501-0.144-0.79-0.144
			c-0.346,0-0.646,0.05-0.899,0.151c-0.253,0.101-0.457,0.233-0.612,0.397c-0.155,0.164-0.275,0.345-0.362,0.541
			c-0.146,0.339-0.219,0.706-0.219,1.101c0,0.488,0.088,0.895,0.264,1.224c0.176,0.329,0.432,0.572,0.768,0.732
			c0.337,0.159,0.694,0.239,1.072,0.239c0.329,0,0.649-0.06,0.962-0.181c0.313-0.12,0.55-0.249,0.711-0.386V38.74H157.33z"/>
		<path d="M163.63,39.609l0.727,0.086c-0.115,0.406-0.327,0.72-0.637,0.944c-0.311,0.224-0.706,0.336-1.189,0.336
			c-0.607,0-1.089-0.179-1.444-0.536c-0.356-0.356-0.534-0.857-0.534-1.502c0-0.667,0.18-1.184,0.54-1.552
			c0.36-0.368,0.827-0.553,1.4-0.553c0.556,0,1.009,0.181,1.361,0.541c0.352,0.361,0.528,0.868,0.528,1.522
			c0,0.04-0.001,0.1-0.003,0.179h-3.097c0.026,0.436,0.155,0.769,0.387,1c0.232,0.231,0.521,0.347,0.868,0.347
			c0.258,0,0.478-0.065,0.66-0.194C163.378,40.099,163.523,39.893,163.63,39.609z M161.319,38.523h2.318
			c-0.031-0.333-0.12-0.583-0.266-0.75c-0.224-0.259-0.515-0.387-0.872-0.387c-0.323,0-0.595,0.103-0.815,0.31
			C161.464,37.901,161.342,38.178,161.319,38.523z"/>
		<path d="M165.24,40.886v-3.963h0.633v0.564c0.305-0.436,0.746-0.653,1.322-0.653c0.25,0,0.48,0.042,0.69,0.129
			c0.21,0.086,0.367,0.198,0.471,0.337c0.104,0.14,0.177,0.305,0.219,0.497c0.026,0.125,0.039,0.342,0.039,0.653v2.437h-0.704
			v-2.411c0-0.274-0.028-0.478-0.082-0.614c-0.054-0.135-0.152-0.244-0.291-0.324c-0.14-0.081-0.303-0.121-0.491-0.121
			c-0.3,0-0.559,0.091-0.776,0.272c-0.218,0.182-0.327,0.526-0.327,1.033v2.165H165.24z"/>
		<path d="M169.432,38.904c0-0.734,0.214-1.278,0.641-1.631c0.357-0.293,0.793-0.44,1.306-0.44c0.571,0,1.037,0.179,1.4,0.536
			s0.544,0.85,0.544,1.48c0,0.51-0.08,0.911-0.241,1.203c-0.16,0.292-0.393,0.519-0.7,0.681c-0.306,0.162-0.641,0.242-1.003,0.242
			c-0.582,0-1.051-0.178-1.41-0.533C169.612,40.086,169.432,39.573,169.432,38.904z M170.156,38.904c0,0.507,0.116,0.888,0.348,1.14
			c0.232,0.253,0.524,0.379,0.875,0.379c0.349,0,0.64-0.127,0.872-0.381c0.232-0.254,0.348-0.64,0.348-1.16
			c0-0.49-0.117-0.861-0.35-1.114c-0.233-0.252-0.523-0.378-0.87-0.378c-0.352,0-0.644,0.125-0.875,0.377
			C170.272,38.017,170.156,38.396,170.156,38.904z"/>
		<path d="M174.148,40.886v-3.963h0.63v0.556c0.131-0.194,0.304-0.35,0.52-0.468c0.216-0.118,0.463-0.177,0.739-0.177
			c0.308,0,0.56,0.061,0.757,0.183s0.336,0.293,0.417,0.511c0.328-0.463,0.756-0.694,1.282-0.694c0.412,0,0.728,0.109,0.95,0.327
			c0.221,0.217,0.332,0.553,0.332,1.006v2.72h-0.7v-2.496c0-0.269-0.022-0.463-0.068-0.581c-0.045-0.118-0.128-0.213-0.248-0.285
			c-0.12-0.072-0.261-0.108-0.422-0.108c-0.292,0-0.535,0.093-0.727,0.278c-0.193,0.186-0.289,0.482-0.289,0.89v2.302h-0.704v-2.575
			c0-0.298-0.057-0.523-0.172-0.672c-0.114-0.149-0.302-0.224-0.563-0.224c-0.198,0-0.381,0.05-0.549,0.149
			c-0.168,0.1-0.29,0.245-0.365,0.437c-0.076,0.191-0.114,0.468-0.114,0.828v2.056H174.148z"/>
		<path d="M180.823,36.187v-0.772h0.704v0.772H180.823z M180.823,40.886v-3.963h0.704v3.963H180.823z"/>
		<path d="M185.308,39.434L186,39.52c-0.075,0.455-0.269,0.812-0.581,1.069c-0.311,0.258-0.694,0.386-1.148,0.386
			c-0.568,0-1.025-0.177-1.37-0.531c-0.346-0.355-0.518-0.863-0.518-1.524c0-0.428,0.074-0.803,0.223-1.123s0.375-0.562,0.679-0.722
			c0.304-0.161,0.634-0.241,0.991-0.241c0.451,0,0.82,0.109,1.107,0.327s0.471,0.527,0.552,0.927l-0.684,0.101
			c-0.066-0.266-0.181-0.466-0.346-0.601c-0.165-0.135-0.366-0.201-0.6-0.201c-0.355,0-0.642,0.121-0.864,0.363
			c-0.221,0.243-0.332,0.626-0.332,1.151c0,0.533,0.107,0.919,0.321,1.161c0.214,0.241,0.492,0.362,0.836,0.362
			c0.276,0,0.507-0.081,0.693-0.243C185.141,40.019,185.258,39.77,185.308,39.434z"/>
		<path d="M186.321,39.703l0.696-0.104c0.039,0.266,0.148,0.47,0.327,0.611c0.178,0.142,0.428,0.213,0.748,0.213
			c0.323,0,0.563-0.063,0.72-0.188c0.156-0.126,0.235-0.273,0.235-0.443c0-0.152-0.069-0.271-0.207-0.358
			c-0.096-0.06-0.337-0.136-0.72-0.228c-0.516-0.124-0.874-0.232-1.073-0.322c-0.2-0.091-0.35-0.217-0.454-0.377
			c-0.103-0.161-0.154-0.338-0.154-0.532c0-0.176,0.043-0.34,0.127-0.491c0.084-0.15,0.2-0.276,0.346-0.375
			c0.109-0.077,0.258-0.142,0.447-0.196c0.189-0.053,0.392-0.08,0.608-0.08c0.326,0,0.612,0.045,0.858,0.134
			c0.246,0.09,0.429,0.211,0.546,0.364c0.117,0.153,0.198,0.358,0.242,0.614l-0.688,0.089c-0.031-0.204-0.121-0.363-0.272-0.477
			c-0.15-0.115-0.362-0.171-0.635-0.171c-0.323,0-0.554,0.051-0.693,0.153c-0.138,0.102-0.207,0.221-0.207,0.358
			c0,0.087,0.029,0.166,0.087,0.235c0.057,0.072,0.147,0.132,0.269,0.179c0.071,0.025,0.278,0.082,0.622,0.171
			c0.498,0.127,0.845,0.231,1.042,0.312c0.197,0.081,0.352,0.198,0.464,0.353c0.112,0.154,0.168,0.346,0.168,0.574
			c0,0.224-0.068,0.435-0.205,0.633c-0.137,0.198-0.334,0.351-0.593,0.459c-0.258,0.108-0.55,0.162-0.875,0.162
			c-0.54,0-0.951-0.107-1.234-0.321C186.579,40.44,186.399,40.123,186.321,39.703z"/>
	</g>
</g>
</svg>
